<?xml version="1.0" encoding="utf-8"?>
<!-- Generator: Adobe Illustrator 23.0.3, SVG Export Plug-In . SVG Version: 6.00 Build 0)  -->
<svg version="1.1" id="Layer_1" xmlns="http://www.w3.org/2000/svg" xmlns:xlink="http://www.w3.org/1999/xlink" x="0px" y="0px"
	 viewBox="0 0 800 487" style="enable-background:new 0 0 800 487;" xml:space="preserve">
<style type="text/css">
	.st0{clip-path:url(#SVGID_2_);fill:#F9DFC7;}
	.st1{clip-path:url(#SVGID_2_);}
	.st2{fill:#9B7C5A;}
	.st3{fill:none;stroke:#603813;stroke-width:2;stroke-miterlimit:10;}
	.st4{fill:#FCD29F;}
	.st5{fill:none;stroke:#603813;stroke-width:0.75;stroke-miterlimit:10;}
	.st6{fill:#410B13;}
	.st7{fill:#EAE0D6;stroke:#CEC5BE;stroke-width:0.75;stroke-miterlimit:10;}
	.st8{fill:#410B13;stroke:#23060C;stroke-width:0.25;stroke-miterlimit:10;}
	.st9{fill:none;stroke:#A09C98;stroke-width:2;stroke-miterlimit:10;}
	.st10{fill:#EAE0D6;}
	.st11{fill:#EAE0D6;stroke:#CEC5BE;stroke-miterlimit:10;}
	.st12{fill:none;stroke:#A09C98;stroke-width:3;stroke-miterlimit:10;}
	.st13{fill:none;stroke:#A09C98;stroke-miterlimit:10;}
	.st14{fill:#D7E9F4;stroke:#CEC5BE;stroke-width:0.75;stroke-miterlimit:10;}
	.st15{fill:#8D766E;stroke:#6D5C57;stroke-width:0.5;stroke-miterlimit:10;}
	.st16{fill:none;stroke:#CEC5BE;stroke-width:0.75;stroke-miterlimit:10;}
	.st17{fill:#CEC5BE;stroke:#CEC5BE;stroke-width:0.75;stroke-miterlimit:10;}
	.st18{fill:#EACF60;}
	.st19{fill:#717177;stroke:#14131C;stroke-miterlimit:10;}
	.st20{fill:#515072;stroke:#14131C;stroke-miterlimit:10;}
	.st21{fill:#36344F;stroke:#14131C;stroke-width:2;stroke-miterlimit:10;}
	.st22{fill:#515072;}
	.st23{fill:#75747F;}
	.st24{fill:#EF7918;stroke:#A04B12;stroke-width:2;stroke-miterlimit:10;}
	.st25{fill:#FFA05F;}
	.st26{fill:#990E0E;stroke:#560707;stroke-width:2;stroke-miterlimit:10;}
	.st27{fill:#C92020;}
	.st28{fill:#31285E;stroke:#15122D;stroke-width:2;stroke-miterlimit:10;}
	.st29{fill:#473E89;}
	.st30{fill:#F75D4F;stroke:#BF433D;stroke-width:2;stroke-miterlimit:1;}
	.st31{fill:#29B715;stroke:#279114;stroke-miterlimit:1;}
	.st32{fill:none;stroke:#398409;stroke-width:2;stroke-miterlimit:1;}
	.st33{fill:#824B33;stroke:#5E3425;stroke-width:2;stroke-miterlimit:10;}
	.st34{fill:none;stroke:#383433;stroke-width:2;stroke-miterlimit:10;}
	.st35{fill:#3F3E3D;stroke:#191918;stroke-width:2;stroke-miterlimit:10;}
	.st36{fill:#BF8C19;stroke:#996D16;stroke-width:2;stroke-miterlimit:10;}
	.st37{fill:#D7DBD8;stroke:#849B8F;stroke-width:3;stroke-miterlimit:10;}
	.st38{fill:#A3B7AD;stroke:#849B8F;stroke-width:3;stroke-miterlimit:10;}
	.st39{fill:#C1D1C8;stroke:#9EAFA5;stroke-width:3;stroke-miterlimit:10;}
	.st40{fill:#D7DBD8;stroke:#9EAFA5;stroke-width:3;stroke-miterlimit:10;}
	.st41{fill:#2F2F2F;stroke:#0C0C0C;stroke-width:2.5;stroke-miterlimit:10;}
	.st42{fill:#2F2F2F;stroke:#0C0C0C;stroke-width:2;stroke-miterlimit:10;}
	.st43{fill:#C9A409;stroke:#0C0C0C;stroke-width:3;stroke-miterlimit:10;}
	.st44{fill:#D6BCA7;stroke:#968478;stroke-width:3;stroke-miterlimit:10;}
</style>
<g>
	<defs>
		<rect id="SVGID_1_" x="-1" width="800" height="487"/>
	</defs>
	<clipPath id="SVGID_2_">
		<use xlink:href="#SVGID_1_"  style="overflow:visible;"/>
	</clipPath>
	<rect id="background" x="-1" class="st0" width="800" height="487"/>
	<g id="corkboard" class="st1">
		<g id="Cork_board_body">
			<g id="XMLID_2_">
				<g>
					<rect x="545" y="127.5" class="st2" width="199.7" height="116.4"/>
				</g>
				<g>
					<rect x="545" y="127.5" class="st3" width="199.7" height="116.4"/>
				</g>
			</g>
			<g id="XMLID_1_">
				<g>
					<rect x="558.9" y="138.9" class="st4" width="171.9" height="93.6"/>
				</g>
				<g>
					<rect x="558.9" y="138.9" class="st5" width="171.9" height="93.6"/>
				</g>
			</g>
		</g>
		<g id="corkboard_items">
			<g id="Item-one">
				<g>
					<polygon id="note-one_13_" class="st6" points="579.1,176.7 555.8,171.7 562.9,147.7 586.2,152.7 					"/>
					<ellipse id="pin_17_" class="st6" cx="574" cy="150.6" rx="2" ry="1.7"/>
					<line id="fake-text-one_16_" class="st6" x1="564.5" y1="156.8" x2="580.8" y2="160.3"/>
					<line id="fake-text-two_16_" class="st6" x1="563.5" y1="160.1" x2="579.9" y2="163.6"/>
					<line id="fake-text-three_16_" class="st6" x1="562.5" y1="163.5" x2="572.1" y2="165.5"/>
				</g>
				<g>
					<polygon id="note-one_12_" class="st7" points="579.1,176.7 555.8,171.7 562.9,147.7 586.2,152.7 					"/>
					<ellipse id="pin_16_" class="st8" cx="574" cy="150.6" rx="2" ry="1.7"/>
					<line id="fake-text-one_15_" class="st9" x1="564.5" y1="156.8" x2="580.8" y2="160.3"/>
					<line id="fake-text-two_15_" class="st9" x1="563.5" y1="160.1" x2="579.9" y2="163.6"/>
					<line id="fake-text-three_15_" class="st9" x1="562.5" y1="163.5" x2="572.1" y2="165.5"/>
				</g>
			</g>
			<g id="item-two">
				<g>
					<polygon id="note-two_7_" class="st10" points="734.6,225.5 692.8,228.8 686.7,172.5 728.5,169.2 					"/>
					<ellipse id="pin_15_" class="st10" cx="708" cy="171.3" rx="2" ry="1.7"/>
					<line id="fake-title_7_" class="st10" x1="696.4" y1="180.2" x2="721.9" y2="178.2"/>
					<line id="fake-text-one_14_" class="st10" x1="696.1" y1="190.7" x2="712.1" y2="189.4"/>
					<polygon id="check-box-one_7_" class="st10" points="726.3,190.4 720.3,190.9 719.8,186.7 725.8,186.2 					"/>
					<line id="fake-text-two_14_" class="st10" x1="697.1" y1="199.2" x2="713" y2="197.9"/>
					<polygon id="check-box-two_7_" class="st10" points="727.2,199 721.2,199.4 720.7,195.2 726.7,194.7 					"/>
					<line id="fake-text-three_14_" class="st10" x1="698" y1="207.7" x2="714" y2="206.5"/>
					<polygon id="check-box-three_7_" class="st10" points="728.1,207.5 722.1,208 721.7,203.7 727.6,203.2 					"/>
				</g>
				<g>
					<polygon id="note-two_6_" class="st11" points="734.6,225.5 692.8,228.8 686.7,172.5 728.5,169.2 					"/>
					<ellipse id="pin_14_" class="st8" cx="708" cy="171.3" rx="2" ry="1.7"/>
					<line id="fake-title_6_" class="st12" x1="696.4" y1="180.2" x2="721.9" y2="178.2"/>
					<line id="fake-text-one_13_" class="st9" x1="696.1" y1="190.7" x2="712.1" y2="189.4"/>
					<polygon id="check-box-one_6_" class="st13" points="726.3,190.4 720.3,190.9 719.8,186.7 725.8,186.2 					"/>
					<line id="fake-text-two_13_" class="st9" x1="697.1" y1="199.2" x2="713" y2="197.9"/>
					<polygon id="check-box-two_6_" class="st13" points="727.2,199 721.2,199.4 720.7,195.2 726.7,194.7 					"/>
					<line id="fake-text-three_13_" class="st9" x1="698" y1="207.7" x2="714" y2="206.5"/>
					<polygon id="check-box-three_6_" class="st13" points="728.1,207.5 722.1,208 721.7,203.7 727.6,203.2 					"/>
				</g>
			</g>
			<g id="picture">
				<rect id="background_1_" x="604" y="152.3" class="st14" width="39.5" height="30.4"/>
				<g id="mountain-two_1_">
					<polygon id="mountain-two" class="st15" points="612.8,165.3 619.4,176.7 606.1,176.7 					"/>
					<g id="mountain-top-path">
						<polyline class="st16" points="611.6,165.9 612.1,168.1 613.4,166.3 614.1,168.5 						"/>
					</g>
					<path id="mountain-top" class="st17" d="M612.1,166.6c0.8-1.8,0.8-1.8,0.8-1.8l1.3,2.4l-0.9,0.9L612.1,166.6l-0.3-0.2l0,0l0,0
						c0,0,0,1.5,0,0.8"/>
				</g>
				<g id="mountain-one_1_">
					<polygon id="mountain-one" class="st15" points="618.5,169 624,178.5 613,178.5 					"/>
					<g id="mountain-top-path_1_">
						<polyline class="st16" points="617.6,169.3 617.9,171.4 619.1,169.6 619.6,171.8 						"/>
					</g>
					<path id="mountain-top_1_" class="st17" d="M618,170c0.7-1.5,0.7-1.5,0.7-1.5l1,2l-0.7,0.8L618,170l-0.2-0.2l0,0l0,0
						c0,0,0,1.3,0,0.6"/>
				</g>
				<ellipse id="pin_2_" class="st8" cx="624" cy="152.3" rx="2" ry="1.7"/>
				<ellipse id="sun" class="st18" cx="635" cy="161.8" rx="3" ry="2.6"/>
			</g>
			<g id="Item-three">
				<g>
					<polygon id="note-one_11_" class="st6" points="644.7,233.6 620.8,232.5 622.4,207.7 646.4,208.9 					"/>
					<ellipse id="pin_13_" class="st6" cx="634" cy="208.8" rx="2" ry="1.7"/>
					<line id="fake-text-one_12_" class="st6" x1="626" y1="216.4" x2="642.8" y2="217.3"/>
					<line id="fake-text-two_12_" class="st6" x1="625.8" y1="219.9" x2="642.6" y2="220.7"/>
					<line id="fake-text-three_12_" class="st6" x1="625.5" y1="223.3" x2="635.4" y2="223.8"/>
				</g>
				<g>
					<polygon id="note-one_10_" class="st7" points="644.7,233.6 620.8,232.5 622.4,207.7 646.4,208.9 					"/>
					<ellipse id="pin_12_" class="st8" cx="634" cy="208.8" rx="2" ry="1.7"/>
					<line id="fake-text-one_11_" class="st9" x1="626" y1="216.4" x2="642.8" y2="217.3"/>
					<line id="fake-text-two_11_" class="st9" x1="625.8" y1="219.9" x2="642.6" y2="220.7"/>
					<line id="fake-text-three_11_" class="st9" x1="625.5" y1="223.3" x2="635.4" y2="223.8"/>
				</g>
			</g>
			<g id="Item-four">
				<g>
					<polygon id="note-one_9_" class="st6" points="668.7,216.5 644.8,215.4 646.4,190.6 670.4,191.7 					"/>
					<ellipse id="pin_11_" class="st6" cx="658" cy="191.7" rx="2" ry="1.7"/>
					<line id="fake-text-one_10_" class="st6" x1="650" y1="199.3" x2="666.8" y2="200.1"/>
					<line id="fake-text-two_10_" class="st6" x1="649.8" y1="202.7" x2="666.6" y2="203.6"/>
					<line id="fake-text-three_10_" class="st6" x1="649.5" y1="206.2" x2="659.4" y2="206.6"/>
				</g>
				<g>
					<polygon id="note-one_8_" class="st7" points="668.7,216.5 644.8,215.4 646.4,190.6 670.4,191.7 					"/>
					<ellipse id="pin_10_" class="st8" cx="658" cy="191.7" rx="2" ry="1.7"/>
					<line id="fake-text-one_9_" class="st9" x1="650" y1="199.3" x2="666.8" y2="200.1"/>
					<line id="fake-text-two_9_" class="st9" x1="649.8" y1="202.7" x2="666.6" y2="203.6"/>
					<line id="fake-text-three_9_" class="st9" x1="649.5" y1="206.2" x2="659.4" y2="206.6"/>
				</g>
			</g>
		</g>
	</g>
	<g id="chair" class="st1">
		<g id="leg">
			<rect id="spine" x="274" y="451.9" class="st19" width="13.5" height="115.1"/>
			<rect id="base-one" x="271.5" y="535.4" class="st19" width="19" height="16.3"/>
			<rect id="base-two_1_" x="269.5" y="551.6" class="st20" width="23" height="18"/>
		</g>
		<g id="seat">
			<path id="seat_body" class="st21" d="M339,516.1H224c-6.6,0-12-5.4-12-12v-7.7c0-6.6,5.4-12,12-12h115c6.6,0,12,5.4,12,12v7.7
				C351,510.7,345.6,516.1,339,516.1z"/>
			<path id="bottom" class="st22" d="M349.7,504.1H213c0,0,2.2,11.6,13.3,11.6s113.4-0.8,113.4-0.8S352,511.5,349.7,504.1z"/>
			<path id="shadow-top" class="st23" d="M231,485.3c0,0,40,16.3,101,0H231z"/>
		</g>
		<path id="backrest" class="st21" d="M334.5,454.5h-106c-5.2,0-9.5-4.5-9.5-10.1c0,0,0-11,0-26.1c0-3,0-6.2,0-9.6
			c1-30.4,3-74.9,44.1-82.6c3.1-0.8,6.2-1.4,9.3-1.9c22-3.2,45.5,2.4,56.9,19.6c1.5,2.1,2.9,4.2,4.2,6.4c5.1,8.8,8.2,18.3,8.8,27.3
			c0.4,2.6,0.7,5.2,0.8,7.9c0.3,2.8,0.5,5.7,0.5,8.6c0.1,2.7,0.1,5.2,0.2,7.7c0,2.4,0.1,4.8,0.2,7c0,3.3,0,6.5,0,9.5
			c0,15.1,0,26.1,0,26.1C344,449.9,339.7,454.5,334.5,454.5z"/>
	</g>
	<g id="books" class="st1">
		<g id="orange_book">
			<rect id="book" x="46" y="405.3" class="st24" width="109" height="15"/>
			<rect id="book_spine" x="67" y="410" class="st25" width="67" height="6.8"/>
		</g>
		<g id="red_book">
			<rect id="book_1_" x="35.5" y="388.1" class="st26" width="109" height="16.3"/>
			<rect id="book_spine_1_" x="54" y="392.9" class="st27" width="74" height="6.8"/>
		</g>
		<g id="navy_blue_book">
			<rect id="book_2_" x="40.5" y="370.2" class="st28" width="109" height="16.3"/>
			<rect id="book_spine_2_" x="53" y="374.9" class="st29" width="87" height="6.8"/>
		</g>
	</g>
	<g id="potted_plant" class="st1">
		<g id="pot">
			<polygon id="body" class="st30" points="418.8,391 405.4,402.1 410.5,420.1 427.1,420.1 432.2,402.1 			"/>
			<rect id="top" x="401.7" y="391" class="st30" width="33.3" height="12.8"/>
		</g>
		<g id="plant">
			
				<ellipse id="leaf-four" transform="matrix(0.7773 -0.6291 0.6291 0.7773 -123.5744 342.5634)" class="st31" cx="422.1" cy="345.8" rx="13.9" ry="3.5"/>
			
				<ellipse id="leaf-three" transform="matrix(0.8135 -0.5816 0.5816 0.8135 -112.5188 299.2025)" class="st31" cx="410.2" cy="325" rx="3.4" ry="8.3"/>
			
				<ellipse id="leaf-two" transform="matrix(0.9574 -0.2887 0.2887 0.9574 -71.776 135.3219)" class="st31" cx="422.9" cy="311" rx="5" ry="12.2"/>
			
				<ellipse id="leaf-one" transform="matrix(0.7105 -0.7037 0.7037 0.7105 -98.9425 396.8953)" class="st31" cx="432.9" cy="318.7" rx="6.6" ry="2.5"/>
			<path id="stalk" class="st32" d="M418.5,390.1c0.1-13.5-1.3-19.5-6.3-34.9s-0.7-21.4,5.7-25.7s10.1-6.8,10.1-6.8"/>
		</g>
	</g>
	<g id="body_1_" class="st1">
		<g id="head">
			<ellipse id="head-shape" class="st33" cx="284.2" cy="296.4" rx="35.8" ry="41.3"/>
			<path id="right-eye" class="st34" d="M295,290.1c0,0,6-7.7,12,0"/>
			<path id="left-eye" class="st34" d="M263,291c0,0,6-7.7,12,0"/>
			<path id="hair-puff" class="st35" d="M249,291.9c0,0-1-6.8,7-12.8c8-6,4-9.4,4-9.4s-2-1.7,5-4.3s7-6,9-6s4-3.4,10,0
				c0,0,4-3.4,6-1.7c2,1.7,6,4.3,7,4.3s-1,5.1,5,4.3c6-0.9,6,2.6,7,5.1s-1,6,2,6.8c3,0.9,7,8.6,9,8.6s0-9.4,0-12s-5-8.6-3-8.6
				s-8-2.6-4-5.1c0,0,8,3.4,10-1.7c2-5.1,1-1.7,5-4.3c4-2.6,0.1-8.1,2-10.3c3-3.4-4-10.3-5-12s5-11.1,1-12.8c-5.1-2.2-8-13.7-13-9.4
				c-1,0.9-10-9.4-13-5.1c0,0-7-4.3-11-1.7c-4,2.6-20-0.9-15,3.4c2.5,2.2-9.7-3.1-13,0.9c-5,6-4-1.7-10,3.4c-3.6,3.1-5,0.9-10,3.4
				c-5,2.6-2,2.6-6,6.8s0,16.3,0,16.3s-4,8.6,1,12s-3,1.7,2,6.8c5,5.1,3,0.9,7,1.7s1,4.3,5,6c4,1.7,11-4.3,2,8.6
				C250.4,275.3,249,291.9,249,291.9z"/>
			<rect id="neck" x="269" y="332.9" class="st33" width="31" height="23.1"/>
		</g>
		<path id="arms" class="st36" d="M276.1,341l-69.3,58.8c-9.6,8.2-3.8,23.9,8.8,23.9h138.5c12.6,0,18.4-15.7,8.8-23.9L293.6,341
			C288.6,336.8,281.2,336.8,276.1,341z"/>
		<path id="waist-and-butt" class="st36" d="M324.5,489l-44,0.6l-42.5-1.1c-8.7-2.1-11.5-3.2-9.2-8.7l18.1-41.9
			c0.9-2.1,2.8-3.5,4.9-4h3c0.4,0.1,0.6-0.1,1,0l24.9,0c0.3,0,0.7,0,1,0l24.9,0.8c8.1,0,7.8,0.3,9.2,3.7l17.9,41.9
			C336,485.8,336.5,488,324.5,489z"/>
	</g>
	<g id="computer" class="st1">
		<path id="large-back" class="st37" d="M192.5,376.9v-56.2c0-9.5,7.7-17.3,17.3-17.3h143.4c9.5,0,17.3,7.7,17.3,17.3v56.2
			c0,9.5-7.7,17.3-17.3,17.3H209.8C200.2,394.1,192.5,386.4,192.5,376.9z"/>
		<path id="medium-back" class="st38" d="M352.7,388.1H210.3c-6,0-10.8-4.8-10.8-10.8v-57.1c0-6,4.8-10.8,10.8-10.8h142.4
			c6,0,10.8,4.8,10.8,10.8v57.1C363.5,383.3,358.7,388.1,352.7,388.1z"/>
		<rect id="small-back" x="258.5" y="333.4" class="st39" width="51" height="60.8"/>
		<path id="spinal_support" class="st40" d="M279.1,359.5l-8,47.9c-0.5,2.9,1.7,5.5,4.7,5.5h16.1c2.9,0,5.2-2.6,4.7-5.5l-8-47.9
			C287.6,354.2,280,354.2,279.1,359.5z"/>
		<rect id="base" x="216.5" y="409.5" class="st40" width="132" height="10.3"/>
		<rect id="base-two" x="251.5" y="413.8" class="st39" width="63" height="5.1"/>
	</g>
	<g id="table_structure" class="st1">
		<rect id="table-top" x="35" y="422" class="st41" width="427.5" height="15.4"/>
		<rect id="table-support" x="50.5" y="438.6" class="st41" width="392" height="12"/>
		<rect id="left-table-leg" x="84.5" y="455.8" class="st42" width="10" height="97.1"/>
		<rect id="right-table-leg" x="394" y="456.2" class="st42" width="10" height="96.7"/>
		<path id="right-gold-leg-detail" class="st43" d="M405.4,461.8h-12.7c-2.8,0-5.1-2.3-5.1-5.1l0,0c0-2.8,2.3-5.1,5.1-5.1h12.7
			c2.8,0,5.1,2.3,5.1,5.1l0,0C410.5,459.4,408.2,461.8,405.4,461.8z"/>
		<path id="left-gold-leg-detail" class="st43" d="M95.4,461.8H82.6c-2.8,0-5.1-2.3-5.1-5.1l0,0c0-2.8,2.3-5.1,5.1-5.1h12.7
			c2.8,0,5.1,2.3,5.1,5.1l0,0C100.5,459.4,98.2,461.8,95.4,461.8z"/>
	</g>
	<g id="greeting" class="st1">
		<path id="speech-bubble" class="st44" d="M64.5,79.2c68.1-72.7,260.8-74.6,305,4.4S243.7,219.4,199.8,223.9
			c-43.8,4.5-55.6,1-55.6,1s15.7,25.1,28.1,16.3c0,0-23.1,11.2-57.4-13.9S-1.6,149.8,64.5,79.2z"/>
		<g>
			<path class="st6" d="M135.9,54.2c-0.1,0.2-0.1,0.4-0.2,0.5c-0.2,0.4-0.4,0.7-0.6,1.1c-0.2,0.5-0.5,0.8-0.5,1.4
				c-0.1,0.2-0.2,0.4-0.4,0.5l0.1,0.1c-0.2-0.1-0.3-0.1-0.4,0.1l-0.2,0.5c-0.6,0.6-1,1.3-1.3,2.1c0.1,0.2-0.1,0.3-0.2,0.5
				c-0.7,0.5-0.9,1.2-1.2,2c-0.1,0.2-0.1,0.4-0.1,0.6c-0.4,0.9-0.8,1.8-1.4,2.6c0-0.1,0-0.2-0.1-0.3s-0.1,0-0.2,0.1
				c-0.2,0.3-0.2,0.5-0.3,0.8l0.4-0.2c-0.5,1.2-1.1,2.2-1.7,3.2v0.1c-0.1-0.3-0.2-0.3-0.3-0.1c-0.2,0.4-0.4,0.8-0.5,1.2
				c0.2-0.1,0.4-0.3,0.5-0.3c-0.4,0.9-0.8,1.8-1.2,2.6c-0.1,0.3-0.2,0.5-0.3,0.7c-0.1,0.3-0.1,0.5,0.1,0.6c0.1,0.1,0.2,0.2,0.3,0.3
				c0.7,0.3,0.9,1,1.3,1.6c0.2,0.5,0.3,0.9,0.1,1.4c-0.1,0.2-0.1,0.3-0.3,0.2c-0.2-0.1-0.4-0.3-0.5-0.4c-0.7-0.6-1.4-0.5-2.1-0.4
				c-0.3,0.1-0.5,0.3-0.7,0.6l-1.4,2.9c-0.8,1.8-1.6,3.6-2.4,5.3c-0.2,0.4-0.4,0.8-0.6,1.1l0.2-0.7c0.1-0.2,0.2-0.3,0.1-0.6
				c-0.2,0-0.3,0.3-0.4,0.5c-0.3,0.4-0.4,0.8-0.4,1.3l0.5-0.5c-0.1,0.6-0.4,1.2-0.7,1.7c-1.1,2.5-2.3,5.1-3.4,7.6
				c-0.8,1.8-1.5,3.6-2.4,5.4c-0.1,0.2-0.1,0.4-0.2,0.5c-0.2,0.3-0.4,0.4-0.4,0.3c-0.1-0.2,0.1-0.3,0.1-0.5V102
				c-0.1,0-0.1,0-0.2,0.1c-0.6,0.3-0.6,0.3-0.9-0.4c-0.1-0.2-0.3-0.3-0.5-0.5c-0.4-0.3-0.4-0.4-0.2-0.8c0.1-0.5,0.3-1,0.6-1.4
				c0.3-0.5,0.5-1,0.7-1.6c0.1-0.5,0.3-0.8,0.5-1.3l0.9-2c0.1-0.3,0.2-0.5,0.4-0.8c0.2-0.4,0.4-0.8,0.6-1.3c0.6-1.4,1.2-2.9,1.9-4.4
				l1.5-3.3c0.5-1.1,0.9-2.3,1.5-3.4c0.2-0.3,0.3-0.7,0.4-1.1c0.1-0.5,0.3-0.8,0.6-1.2c0.2-0.2,0.3-0.4,0.4-0.7
				c0.1-0.3-0.1-0.6-0.4-0.7h-0.6c-0.5,0.1-1.1,0.1-1.6,0.2l-3.2,0.4c-1,0.1-2,0.3-3,0.5l-3.3,0.6c-0.9,0.1-1.7,0.5-2.2,1.4
				c-0.2-0.3-0.3-0.4-0.5-0.1c-0.2,0.3-0.3,0.5-0.4,0.8V81c0,0.1,0.1,0.1,0.1,0.1c0.1,0.1,0.1,0,0.2,0l0.5-0.6
				c-0.1,0.6-0.4,1-0.6,1.5l-2.5,5.5c-0.1,0.2-0.2,0.4-0.4,0.6c-0.2-0.3-0.4-0.3-0.5-0.1l-0.9,1.9c0,0,0,0.1,0,0.1v0.2
				c0.1,0,0.1,0,0.2-0.1c0.2-0.1,0.2-0.4,0.4-0.6c0.2-0.5,0.5-1,0.8-1.5c-0.1,0.6-0.5,1.2-0.8,1.9c-0.9,2.1-1.8,4.2-2.7,6.2
				c-0.1,0.3-0.2,0.6-0.4,0.8c0.2-0.8,0.5-1.6,0.8-2.4c0.5-0.9,0.9-1.9,1.2-2.9c0.1,0,0-0.1,0-0.1c-0.1,0-0.1,0.1-0.2,0.1
				c0,0,0,0.1-0.1,0.1c-0.9,1.9-1.7,3.9-2.5,5.9v0.1c-0.1,0.1-0.1,0.2,0.1,0.2c0,0.1,0.1,0,0.1-0.1c0.2-0.3,0.3-0.6,0.5-0.8
				c-0.2,0.7-0.4,1.4-0.8,1.9v0.1c-0.1-0.1-0.1-0.3-0.2-0.3c-0.2-0.1-0.2,0.1-0.2,0.3c-0.1,0.3-0.1,0.5-0.1,0.8
				c0.2-0.3,0.3-0.5,0.5-0.7c-0.1,0.6-0.4,1.2-0.7,1.8v-0.7c-0.4,0.5-0.7,1-0.8,1.6l0.2,0.4c0.2-0.5,0.4-0.8,0.7-1.3
				c-0.2,0.9-0.5,1.8-0.8,2.5c-0.2,0.4-0.2,0.8-0.2,1.2h0.1c-0.2,0.1-0.4,0.2-0.5,0.3c-0.4,0.1-0.8,0.1-1.1-0.4
				c-0.1-0.2-0.3-0.4-0.5-0.5c-0.4-0.3-0.4-0.7-0.3-1.2c0.1-0.3,0.2-0.5,0.3-0.8c0.4-1.2,0.8-2.3,1.2-3.5c0.4-1.1,0.8-2.1,1.3-3.2
				l0.7-1.6c0.2-0.5,0.4-0.9,0.6-1.4c0.3-0.6,0.5-1.2,0.8-1.9c0.2-0.6,0.5-1.3,0.8-1.9c0.5-1.2,1.1-2.3,1.5-3.5
				c0.3-0.6,0.5-1.2,0.8-1.8c0.1-0.5,0.4-0.9,0.7-1.3c0.2-0.3,0.4-0.6,0.4-1c0.2-0.6,0-0.8-0.6-0.8c-0.8,0.1-1.5,0.3-2.3,0.5
				c-1.5,0.3-2.9,0.7-4.4,1.1c-1.3,0.3-2.5,0.7-3.9,1.1l-2.2,0.8c-0.3,0.1-0.6,0.2-0.8,0.3c-0.5,0.2-1,0-1.2-0.6
				c-0.4-0.9-0.3-1.2,0.5-1.6c0.8-0.3,1.5-0.7,2.4-1c0.2-0.1,0.4-0.1,0.5-0.2c0.3-0.1,0.6-0.2,0.8-0.3c0.8-0.4,1.6-0.6,2.4-0.9
				c0.1-0.1,0.2-0.1,0.4-0.1c1.2-0.1,2.3-0.6,3.4-0.9c1.7-0.5,3.3-0.9,5-1.2c0.4-0.1,0.8-0.2,1.1-0.4c0.6-0.3,1-0.7,1.2-1.4
				c0.5-1.2,1.1-2.3,1.7-3.4c0.1-0.1,0.2-0.3,0.2-0.4c0.4-1.2,1-2.3,1.6-3.4c0.2-0.3,0.4-0.7,0.6-1.1c0.5-1.2,1.3-2.3,1.8-3.6
				c0.2-0.6,0.7-1.2,1-1.8c0.5-0.8,0.9-1.8,1.6-2.7c0.1-0.1,0.1-0.1,0.1-0.1c0.4-1.2,1.2-2.1,1.9-3.2c0.7-1,1.2-2,1.9-3
				c0.1-0.2,0.2-0.4,0.4-0.5c0.4-0.5,0.7-1,1-1.5c0.1-0.2,0.2-0.3,0.4-0.5c0.1-0.2,0.4-0.1,0.5,0c0.2,0.3,0.4,0.5,0.5,0.8
				s0.1,0.6,0,0.8s-0.2,0.5-0.4,0.6c-0.6,1-1.2,2-1.7,3.1c-0.2,0.4-0.5,0.8-0.7,1.2c-0.2,0.3-0.4,0.7-0.6,1.1
				c0.1,0.3,0.1,0.5-0.2,0.6c-0.1,0.1-0.2,0.3-0.1,0.5c-0.2,0.5-0.4,0.9-0.8,1.3v-0.4c-0.2,0.2-0.4,0.4-0.5,0.6
				c-0.1,0.1,0,0.2,0.1,0.3h0.1c-0.1,0.3-0.2,0.5-0.4,0.7c-0.1,0-0.1-0.1-0.1-0.1c-0.1,0-0.2,0.1-0.2,0.1v0.1c0.1,0,0.1,0,0.2,0
				c0.1,0,0.1-0.1,0.1-0.1c-0.2,0.6-0.5,1.1-0.8,1.6l-0.2-0.3c-0.2,0.3-0.2,0.3,0.2,0.3c-0.2,0.3-0.4,0.6-0.7,0.9
				c-0.5,1.4-1.2,2.7-2,3.9c-0.1-0.1-0.3-0.1-0.4,0.1c-0.1,0.1-0.1,0.2-0.1,0.3c-0.2,0.2-0.4,0.4-0.2,0.4c0.2,0,0.2-0.3,0.2-0.4
				l0.5-0.4c-0.1,0.6-0.4,1-0.7,1.6c-0.7,1.4-1.3,2.8-2.1,4.2l-0.7,1.6c-0.1,0.3,0,0.6,0.3,0.7c0.2,0.1,0.4,0,0.7,0l4-0.6
				c1.2-0.1,2.5-0.3,3.8-0.5c0.4,0,0.8-0.1,1.2-0.1c0.6-0.1,1.2-0.2,1.8-0.1c0.2,0.1,0.5,0,0.7,0c0.5-0.1,0.8-0.3,1-0.7
				c0.4-0.5,0.7-1,0.8-1.6l0.2-0.4c0.7-1,1.1-2.2,1.7-3.3l0.2-0.4c0.8-1.1,1.3-2.3,1.9-3.4c0.2-0.4,0.4-0.7,0.6-1.1c1-1.7,2-3.4,3-5
				c0.9-1.6,2-2.9,2.8-4.4c0.2-0.3,0.4-0.5,0.7-0.8c0.1-0.1,0.3-0.3,0.4-0.1c0.1,0.1-0.1,0.3-0.1,0.3c-0.1,0.2-0.1,0.3,0,0.5
				c0.2-0.1,0.4-0.2,0.7-0.3C135.7,53.6,135.9,53.8,135.9,54.2z M89.7,82.2L89.7,82.2l0.8-0.4v0.1l0.5-0.2c0.4-0.1,0.7-0.1,0.9-0.4
				c0.2,0,0.4-0.1,0.5-0.2v0.1c0.4-0.1,0.8-0.2,1.2-0.4c0.2,0,0.4-0.1,0.5-0.2c0.6,0,1.1-0.2,1.7-0.5c0.2,0,0.4-0.1,0.7-0.2
				c0.3,0,0.5-0.2,0.8-0.2c0.6-0.1,1.2-0.1,1.6-0.6C99,79,99.1,79,99.2,79c0.2-0.1,0.5-0.1,0.8-0.1c0.2,0.1,0.5,0.1,0.7,0
				c0.6,0,1.2-0.1,1.7-0.5c0.5-0.3,0.9-0.4,1.5-0.4c0.1,0,0.2-0.1,0.4-0.2c0.1,0,0.1-0.1,0.1-0.1c0-0.1-0.1-0.1-0.1-0.1
				c-0.1,0-0.2,0-0.4,0.1c-1.4,0.3-2.8,0.6-4.2,0.9c-2.5,0.6-4.9,1.3-7.2,2.1c-1.1,0.4-2.1,0.8-3.2,1.3c-0.2,0.1-0.5,0.2-0.8,0.4
				c-0.1,0.1-0.1,0.1-0.1,0.2c0.1,0.1,0.1,0.1,0.2,0.1c0.1,0.1,0.2,0,0.3-0.1l0.3-0.2C89.4,82.4,89.6,82.3,89.7,82.2z M103.6,79.5
				v-0.2c0.1,0,0-0.1,0-0.1h-0.2c-1,0.2-2.1,0.5-3.1,0.7c-3.4,0.7-6.6,1.8-9.9,2.9c-0.3,0.1-0.7,0.1-1,0.5c0.5,0.2,0.8-0.1,1.1-0.2
				c0.1-0.1,0.2-0.1,0.2-0.1c4-1.3,7.9-2.5,12-3.2C103,79.7,103.3,79.6,103.6,79.5z M95.3,102.5C95.3,102.5,95.2,102.5,95.3,102.5
				c-0.1,0.1,0,0.1,0,0.2C95.3,102.6,95.3,102.6,95.3,102.5C95.4,102.5,95.3,102.5,95.3,102.5z M99.1,93c-0.2,0.3-0.4,0.5-0.5,0.8
				c-0.1,0.3-0.2,0.5-0.4,0.7c-0.4,0.5-0.5,1-0.7,1.5c-0.3,0.8-0.5,1.7-0.9,2.5c-0.3,0.6-0.5,1.4-0.7,2.1c-0.2,0.3-0.2,0.6-0.3,0.9
				c0.2-0.3,0.3-0.5,0.3-0.9c0.2-0.2,0.3-0.5,0.4-0.8c0.3-0.6,0.5-1.3,0.8-1.9c0.5-1.4,1.1-2.7,1.7-4.1C98.9,93.5,99,93.2,99.1,93z
				 M99.7,91.6c0.2-0.2,0.3-0.4,0.3-0.6C99.8,91.1,99.7,91.2,99.7,91.6z M100.7,78.8H100C100.2,78.7,100.5,78.7,100.7,78.8z
				 M100.4,90.1c-0.2,0.2-0.3,0.4-0.3,0.6C100.2,90.6,100.3,90.4,100.4,90.1z M104.2,81.8c0.2-0.3,0.4-0.7,0.4-1.2
				c-0.1,0.1-0.2,0.3-0.3,0.5c-0.4,0.7-0.8,1.4-1.1,2.1c-0.1,0.5-0.3,0.8-0.6,1.2c-0.4,0.5-0.6,1-0.8,1.6c-0.2,0.5-0.3,1-0.5,1.4
				c-0.1,0.4-0.4,0.8-0.4,1.2c-0.2,0-0.2,0.1-0.3,0.3l-0.2,1c0.2-0.4,0.4-0.8,0.5-1.2c0.3-0.3,0.4-0.6,0.6-1
				C102.5,85.7,103.4,83.7,104.2,81.8z M103.2,87C103.2,86.9,103.1,86.9,103.2,87L103.2,87L103.2,87z M104.7,83.6
				c-0.1,0-0.1-0.1-0.1-0.1c0,0-0.1,0-0.1,0.1c-0.4,0.7-0.7,1.5-1,2.3c0,0.1,0,0.1,0.1,0.2c0.1,0,0.1-0.1,0.1-0.1
				c0.4-0.7,0.8-1.4,1.1-2.2V83.6z M105.5,82.3L105.5,82.3l-0.1-0.1c-0.2,0.1-0.2,0.3-0.2,0.5C105.2,82.6,105.4,82.5,105.5,82.3z
				 M106.4,80.6c0.1-0.1,0.1-0.3,0.2-0.3L106.4,80.6z M107.9,73.6c0.2-0.2,0.3-0.5,0.3-0.6C108,73.1,107.9,73.3,107.9,73.6
				c-0.7,0.6-1.1,1.3-1.1,2.3c0.2-0.1,0.4-0.3,0.4-0.6C107.5,74.8,107.7,74.2,107.9,73.6z M120.6,76.6c-0.1,0-0.1-0.1-0.2-0.1
				c-1.5,0.2-3.1,0.3-4.7,0.5l-5.2,0.8c-0.6,0.1-1.2,0.3-1.8,0.4c-0.1,0.1-0.2,0.1-0.2,0.2c0,0.1,0.2,0.1,0.2,0.1
				c0.4,0,0.8-0.1,1.1-0.1c0.9-0.1,1.8-0.3,2.7-0.5c2.3-0.3,4.6-0.8,6.9-1c0.5,0,0.9-0.1,1.3-0.2V76.6z M108.5,75.3
				c0,0.1,0,0.1,0.1,0.2c0-0.1,0.1-0.1,0.1-0.2c0-0.1-0.1-0.1-0.1-0.2C108.5,75.1,108.5,75.2,108.5,75.3z M108.5,72.1
				c0.5-0.6,0.8-1.1,0.9-1.9C109.1,70.8,108.8,71.5,108.5,72.1z M109.1,74.3c0,0-0.1,0-0.1,0.1c-0.2,0.1-0.4,0.3-0.5,0.6
				c0.2-0.1,0.5-0.2,0.6-0.5C109.2,74.4,109.2,74.3,109.1,74.3z M121.3,75.3L121.3,75.3c0-0.1,0-0.1-0.1-0.1c-0.2-0.1-0.4,0-0.6,0.1
				c-1.2,0-2.4,0.1-3.7,0.3c-1.7,0.2-3.3,0.5-5,0.6l-2.3,0.4c-0.2,0-0.3,0.1-0.5,0.2c0,0-0.1,0-0.1,0.1l0.1,0.1
				c0.4,0.1,0.8,0.2,1.2,0c0.4-0.2,0.8-0.3,1.2-0.3c1.2-0.2,2.5-0.3,3.7-0.5c0.5-0.1,1.1-0.2,1.6-0.2c0.5,0.1,1,0,1.5-0.2
				c0.4-0.1,0.7-0.1,1.1-0.1c0.4,0.1,0.7,0,1.1-0.3C120.9,75.2,121.1,75.3,121.3,75.3z M110.2,72.2c-0.4,0.3-0.8,0.6-0.9,1.2
				c0,0.1,0,0.2,0.1,0.2c0,0.1,0.1,0,0.1,0C109.8,73.1,110,72.7,110.2,72.2z M109.5,70.1c0.6-0.6,0.9-1.4,1.1-2.2
				c0.7-0.7,1.1-1.6,1.3-2.5c0.4-0.5,0.7-1,0.8-1.6c0.1-0.2,0.2-0.3,0.3-0.5c-0.2,0.1-0.2,0.3-0.3,0.5c-0.4,0.5-0.7,1-0.8,1.6
				c-0.1,0.1-0.2,0.1-0.4,0.1h0.1c-0.2,0.2-0.4,0.4-0.4,0.6c-0.1,0.4-0.3,0.8-0.4,1.1c-0.1,0.2-0.1,0.4-0.2,0.6
				C110.1,68.5,109.8,69.3,109.5,70.1z M110.4,71.6c0,0.1-0.1,0.1-0.1,0.2C110.4,71.8,110.4,71.8,110.4,71.6
				C110.5,71.7,110.4,71.6,110.4,71.6z M111.6,69.1c-0.2,0.3-0.4,0.7-0.5,1.1C111.4,69.9,111.6,69.5,111.6,69.1z M112,100.1
				c0,0.1-0.1,0.1-0.1,0.1l-0.1,0.1c0.1,0.1,0.1,0.1,0.1,0C112,100.3,112,100.2,112,100.1z M114.8,97.3c-0.1-0.1-0.3,0.1-0.4,0.5
				c-0.1,0.1-0.1,0.3-0.2,0.5c-0.2,0.6-0.5,1.3-0.8,1.9c-0.2,0.5-0.5,1-0.5,1.6c0.2-0.2,0.4-0.5,0.5-0.7c0.4-1,0.9-2.1,1.4-3.2
				C114.7,97.7,114.8,97.5,114.8,97.3z M113,98c0.1-0.2,0.2-0.3,0.3-0.5c0.4-0.8,0.8-1.6,1.1-2.5l0.2-0.6c-0.2,0.1-0.4,0.4-0.5,0.6
				c-0.2,0.3-0.4,0.6-0.5,1c-0.2,0.3-0.3,0.7-0.4,1C113.1,97.3,113,97.7,113,98z M113.5,62.5c0.2-0.1,0.2-0.3,0.3-0.5
				C113.6,62.1,113.5,62.3,113.5,62.5z M113.9,61.6c0.2-0.1,0.3-0.3,0.4-0.5C114.1,61.2,114,61.4,113.9,61.6z M116.4,90.3
				c-0.8,0.9-0.9,1.4-1.2,2.8l0.2-0.1c0.5-0.8,0.8-1.6,1.1-2.5C116.4,90.4,116.4,90.3,116.4,90.3z M116.8,92.5
				c-0.1,0-0.1,0.1-0.2,0.1c-0.1,0-0.1,0.1-0.1,0.1c-0.5,1-0.9,2-1.3,3.1c-0.1,0.1,0,0.3,0,0.3c0.4-0.3,0.5-0.7,0.7-1
				c0.3-0.8,0.7-1.6,1-2.3C116.9,92.7,117,92.6,116.8,92.5z M116.4,60.5c0.1-0.1,0.1-0.1,0.2-0.2L116.4,60.5L116.4,60.5z
				 M116.4,57.2c0.4-0.3,0.5-0.6,0.7-1.2C116.7,56.5,116.5,56.8,116.4,57.2z M116.5,60.3c0.1-0.1,0.1-0.3,0.2-0.3L116.5,60.3z
				 M117.2,88.7c0.3-0.7,0.7-1.4,0.8-2.1c-0.2-0.1-0.4,0.1-0.4,0.3c-0.1,0.6-0.3,1.1-0.5,1.6C117.1,88.5,117,88.6,117.2,88.7z
				 M117.4,91.6c0.2-0.2,0.3-0.4,0.4-0.7C117.5,91,117.4,91.2,117.4,91.6c-0.1,0.1-0.2,0.1-0.2,0.1c-0.1,0.1-0.1,0.1,0,0.1h0.1
				L117.4,91.6z M118.2,89.7c0.2-0.2,0.2-0.5,0.3-0.7C118.3,89.2,118.1,89.4,118.2,89.7c-0.5,0.2-0.5,0.6-0.5,1
				C118,90.5,118.1,90.2,118.2,89.7z M119.3,83.6c-0.7,0.8-1.1,1.8-1.3,2.9C118.6,85.7,119.1,84.7,119.3,83.6z M121,80.1
				c-0.7,1-1.2,1.9-1.5,3.1C120.2,82.3,120.6,81.2,121,80.1z M121.4,82.5c-0.2-0.1-0.3,0.2-0.4,0.4c-0.2,0.3-0.4,0.7-0.5,1.1
				c-0.1,0.1-0.1,0.2,0.1,0.2c0.1,0.1,0.2-0.1,0.2-0.1V84c0.2-0.3,0.4-0.6,0.5-0.9C121.4,82.9,121.6,82.7,121.4,82.5z M121.6,78.1
				c-0.1,0.5-0.3,0.8-0.4,1.2c0.5-0.8,0.7-1.1,0.7-1.7C121.8,77.7,121.8,77.9,121.6,78.1z M122.5,80.4c-0.2,0.3-0.5,0.5-0.7,0.8
				c-0.1,0.1-0.2,0.3-0.1,0.3c0.1,0.1,0.2-0.1,0.3-0.2C122.3,81.1,122.4,80.8,122.5,80.4z M123.3,78.6l-0.4,0.6c0,0,0.1,0.1,0.1,0.1
				c0.1,0,0.1,0,0.1-0.1C123.2,79.1,123.2,78.8,123.3,78.6z M123.6,77.9L123.6,77.9h-0.1c-0.1,0.1-0.1,0.3-0.1,0.4
				C123.5,78.2,123.6,78.1,123.6,77.9z M124,73.6L124,73.6c-0.1,0.1-0.1,0.1-0.1,0.1C123.9,73.7,123.9,73.6,124,73.6z M125.7,69.9
				L125.7,69.9c-0.2,0.2-0.4,0.5-0.7,0.8c-0.3,0.7-0.7,1.4-0.8,2.1C124.9,72,125.4,71,125.7,69.9z M126.4,72c-0.4,0.3-0.7,0.6-0.8,1
				l-0.2,0.4c0,0.1,0,0.1,0,0.2v0.1c0,0.1,0,0.2,0.1,0.3c0.1,0.1,0.1-0.1,0.2-0.1L126.4,72z M127.4,66.6c-0.2,0.1-0.3,0.3-0.4,0.5
				c-0.3,0.5-0.5,0.9-0.7,1.4c0.4-0.4,0.6-0.8,0.7-1.4C127.2,67,127.3,66.8,127.4,66.6z M127.4,70.6c0-0.3,0.1-0.5,0.3-0.7
				C127.6,70.1,127.5,70.3,127.4,70.6z M129,63.6c-0.5,0.6-1,1.2-1.1,2.1C128.3,65.1,128.8,64.3,129,63.6z M130.4,61.3
				c0,0-0.1-0.1-0.1-0.1c0,0-0.1,0-0.1,0.1c-0.4,0.6-0.7,1.2-0.9,1.9C129.8,62.7,129.9,61.9,130.4,61.3z M129.4,66.6
				c0.1-0.1,0.1-0.3,0.2-0.4L129.4,66.6z M129.5,66.2L129.5,66.2L129.5,66.2L129.5,66.2z M130.2,64.5L130.2,64.5L130.2,64.5
				L130.2,64.5z"/>
			<path class="st6" d="M141.9,85.3c-0.1,0.2-0.3,0.2-0.4,0.3c-1.8,0.7-3.6,1.3-5.5,1.9c-1.5,0.5-3.1,1.1-4.6,1.8
				c-1,0.5-2.1,0.9-3.1,1.3c-0.7,0.3-1.4,0.5-2.2,0.6c0,0.1-0.1,0.1-0.1,0.1c-1.6,0.3-2.8-0.8-3-2.5c0-0.2-0.1-0.5-0.1-0.7
				c-0.2-0.6,0-1.3,0.3-1.9c0.7-1.2,1.5-2.5,2.4-3.6c0.7-0.8,1.2-1.6,1.8-2.2c0.2-0.3,0.5-0.5,0.8-0.5c0.4,0,0.5,0.1,0.4,0.5
				c0,0.1-0.1,0.1-0.1,0.2c0,0.2,0.1,0.2,0.2,0.1c0.2-0.1,0.4-0.1,0.5,0.1c0.2,0.2,0.2,0.4,0.2,0.7c0,0.2-0.1,0.4-0.2,0.6
				c-0.2,0.3-0.4,0.5-0.6,0.7c-0.2,0.4-0.5,0.8-0.5,1.3c0,0.3-0.2,0.6-0.4,0.8c-0.4,0.5-0.7,1-1.1,1.6c-0.1,0.1-0.2,0.4-0.2,0.6
				c-0.1,0.1,0.1,0.3,0.2,0.3l0.7-0.2c0.9-0.3,1.9-0.6,2.8-1c0.5-0.2,0.9-0.4,1.4-0.6c0.9-0.5,1.8-0.8,2.8-1
				c0.5-0.1,0.9-0.2,1.4-0.4c0.4-0.2,0.8-0.3,1.1-0.5c1.2-0.5,2.4-0.5,3.6-0.8h0.4c0.2,0,0.3,0.2,0.3,0.3c-0.1,0.2-0.2,0.3-0.3,0.3
				c-1.5,0.3-2.9,0.7-4.3,1.2c-2.3,0.6-4.4,1.6-6.6,2.6c-1.4,0.6-2.7,1.2-4.1,1.6c-0.1,0.1-0.2,0.1-0.2,0.1c-0.1,0-0.2,0.1-0.1,0.2
				c0,0.1,0.1,0.1,0.2,0.1h0.2c-0.1,0.1-0.2,0.1-0.2,0.2c0,0.1,0.1,0.1,0.2,0.1c0.9-0.2,1.8-0.5,2.6-1h-0.5c0.9-0.5,1.8-1,2.8-1.3
				l-0.1,0.1c-0.1,0.1-0.2,0.2-0.3,0.3c0.3,0,0.6-0.1,0.8-0.4c-0.2,0-0.4,0.1-0.5,0.1c0.7-0.5,1.5-0.8,2.3-1.1
				c0.4-0.2,0.8-0.3,1.1-0.4c-0.1,0.1-0.2,0.3-0.3,0.4c-0.2,0-0.4,0.1-0.5,0.2c0.2-0.1,0.3-0.1,0.5-0.2c0.4,0,0.7-0.1,1-0.4
				c0.3,0.1,0.5-0.1,0.8-0.1c1.2-0.4,2.5-0.7,3.7-1.1c0.3-0.1,0.5-0.1,0.8-0.3c0.1,0,0.2-0.1,0.2-0.1l-0.1-0.1c-0.1,0-0.2,0-0.2,0
				c0.2-0.1,0.5-0.2,0.8-0.2c0.2,0.1,0.4,0.2,0.7,0.3c0.1,0.1,0.2,0.3,0.2,0.5c0,0.2-0.1,0.3-0.2,0.4c-0.2,0.1-0.5,0.2-0.7,0.3
				c-1.6,0.5-3.2,1-4.8,1.5c-2,0.6-3.9,1.5-5.8,2.3c-0.9,0.4-1.8,0.8-2.8,1.2c-0.6,0.2-1.2,0.3-1.8,0.5l-0.4,0.2c0,0-0.1,0,0,0.1
				c0,0.1,0,0.1,0.1,0.1c0.2,0.1,0.4,0.1,0.5,0c0.9-0.1,1.8-0.5,2.7-0.8c1.2-0.6,2.4-1.1,3.7-1.6c1.7-0.8,3.4-1.4,5.2-1.9
				c1.2-0.3,2.4-0.7,3.6-1.2c0.1-0.1,0.2-0.1,0.3-0.1C141.6,85.2,141.9,85.2,141.9,85.3z M127.1,88.6c0.2-0.1,0.3-0.1,0.5-0.1
				C127.5,88.6,127.3,88.6,127.1,88.6z M128,88.3L128,88.3l-0.5,0.2L128,88.3z M134.9,85.6h-0.7c0.4-0.2,0.7-0.3,1-0.3
				C135.2,85.4,135,85.5,134.9,85.6z M134.9,70.5c-0.1-0.2,0-0.5,0.2-0.6c0.8-0.9,1.4-1.9,2.4-2.7c0.3-0.2,0.6-0.5,0.8-0.8
				c0.6-0.6,1.2-1,1.9-1.4c0.1-0.1,0.2-0.1,0.4-0.1c0.3-0.1,0.5-0.1,0.5,0.1c0.1,0.2-0.1,0.3-0.2,0.4l-0.6,0.6
				c0.3-0.1,0.5-0.2,0.8-0.3c0.2-0.1,0.4-0.1,0.5,0.1c0.1,0.1,0.1,0.3,0.1,0.5c-0.1,0.4-0.4,0.6-0.6,0.8l-0.6,0.6
				c-0.1,0.1-0.1,0.3,0,0.4h-0.1c-0.1,0.3-0.2,0.5-0.4,0.6c-0.5,0.4-0.9,0.9-1.3,1.4c-0.3,0.3-0.5,0.5-0.9,0.6
				c-0.1-0.3-0.2-0.1-0.3,0c-0.4,0.3-0.7,0.7-1,1l-0.4,0.4c-0.4,0.3-0.7,0.3-1-0.1c-0.1-0.1-0.2-0.2-0.2-0.4
				C135,71.3,135,70.9,134.9,70.5z M134.9,85.6L134.9,85.6L134.9,85.6z M136.4,84.9c-0.4,0.3-0.7,0.4-1.1,0.4
				C135.6,85,136.1,84.9,136.4,84.9z M137.6,84.5c-0.4,0.2-0.8,0.3-1.2,0.3C136.8,84.7,137.2,84.6,137.6,84.5z M137.4,70.7
				c0.1,0,0.2,0,0.3,0l-0.1,0.3c-0.1,0.1-0.1,0.1-0.2,0.1c-0.1,0-0.1-0.1-0.1-0.2V70.7z M138.2,84.4c-0.2,0.1-0.5,0.1-0.7,0.2
				C137.8,84.4,138,84.4,138.2,84.4z M138.9,84.2c-0.2,0.1-0.4,0.1-0.7,0.2L138.9,84.2z M139.6,84l-0.7,0.1
				C139.1,84.1,139.3,84,139.6,84L139.6,84z M141,83.6L141,83.6L141,83.6z"/>
			<path class="st6" d="M146.1,90.5c0.2-0.1,0.4-0.3,0.5-0.4c-0.1,0.6-0.4,1-0.8,1.4c-0.2,0.1-0.4,0.3-0.7,0.2
				c-0.2-0.1-0.4-0.1-0.7-0.1c-0.3-0.1-0.5-0.2-0.6-0.5c-0.2-0.3-0.4-0.6-0.7-1c-0.3-0.4-0.3-0.7,0-1.2c0.3-0.5,0.8-0.8,1.3-1
				c0.1,0,0.2-0.1,0.2,0c0.6,0.3,1.2,0.5,1.4,1.1c0.1,0.3,0.2,0.5,0.1,0.8L146.1,90.5z M146,90.7C146,90.7,145.8,90.7,146,90.7
				L146,90.7z"/>
			<path class="st6" d="M122.5,132c-0.1,0.1-0.2,0.1-0.4,0.2c0.2,0.2,0.4,0.1,0.5,0.1c1.1-0.2,2.1-0.4,3.1-0.5
				c1.7-0.3,3.5-0.5,5.2-0.5c0.3,0,0.6,0.1,0.9,0.1c0.1,0,0.1,0.1,0.1,0.1c-0.1,0-0.1,0.1-0.1,0.1c-0.1,0.1-0.2,0.1-0.3,0.1h-0.6
				c-2.4,0-4.9,0.4-7.2,0.8c-0.3,0.1-0.5,0.1-0.8,0.1c-0.4,0.1-0.8,0.3-1.1,0.5c-0.8,0.4-1.3,1-1.8,1.8l-1.8,2.9
				c-0.2,0.3-0.3,0.6-0.5,0.9c-0.7,0.6-1,1.4-1.4,2.2c-0.1,0.2-0.1,0.5-0.1,0.6c-0.1,0.5-0.4,0.8-0.7,1.1h-0.1
				c-0.2,0.1-0.3,0.3-0.4,0.5c-0.1,0.1-0.3,0.3-0.3,0.5c0.1,0.7-0.4,1.2-0.7,1.8c-0.1,0.1-0.2,0.3-0.4,0.5c-0.2,0.5-0.4,1-0.8,1.4
				l0.2-0.7c-0.2,0.1-0.4,0.2-0.5,0.3v0.2c-0.1,0.1-0.1,0.1-0.1,0.2c0,0.1,0,0.2,0.1,0.2c0.1,0,0.1-0.1,0.2-0.1
				c0.1,0,0.1-0.1,0.1-0.1c-0.1,0.8-0.6,1.4-0.9,1.9c-0.2-0.1-0.3-0.1-0.4,0.1c-0.1,0.1-0.1,0.1-0.1,0.3c0,0-0.1,0.1-0.1,0.1v0.1
				c0,0,0.1,0,0.1-0.1c0.1-0.1,0.1-0.1,0.1-0.1l0.4-0.2c-0.1,0.5-0.4,0.8-0.7,1.2l-0.2-0.1c-0.3,0.2-0.4,0.5-0.5,1
				c0.2-0.1,0.3-0.3,0.4-0.4c-0.2,0.7-0.5,1.4-0.9,1.9l-0.1-0.2c-0.2,0-0.2,0.1-0.2,0.2c-0.1,0.1-0.1,0.1-0.1,0.2
				c-0.8,0.8-1.2,1.8-1.6,3c0.1,0,0.2-0.1,0.3-0.1c-0.5,1.4-1.2,2.6-2,3.8c0-0.1,0.1-0.3,0.1-0.3c0-0.1,0-0.3-0.1-0.3
				c-0.1-0.1-0.2,0.1-0.2,0.2c-0.1,0.2-0.1,0.3-0.1,0.5c-0.6,0.5-0.8,1.2-0.9,2c-0.2,0.2-0.4,0.5-0.5,0.8c-0.1,0.2,0.1,0.3,0.2,0.3
				c-0.2,0.6-0.4,1.1-0.8,1.6h0.1c-0.2,0.6-0.5,1.1-0.8,1.7c-0.1-0.1-0.1-0.3-0.1-0.3c0-0.1-0.1-0.2-0.2-0.1
				c-0.4,0.3-0.5,0.7-0.7,1.2c-0.1,0.3,0.1,0.3,0.4,0.3c-0.2,0.7-0.5,1.4-0.9,1.9V169c-0.4,0.3-0.7,0.7-0.5,1.2
				c-0.5,0.3-0.7,0.7-0.7,1.3l0.1-0.1l-0.2,0.4c-0.4,0.2-0.5,0.5-0.7,0.9c0.2-0.1,0.4-0.3,0.7-0.4c-0.2,0.5-0.3,1-0.7,1.4v0.1
				c-0.1-0.2-0.1-0.3-0.3-0.1c0,0.1,0,0.2-0.1,0.3c-0.2,0.2-0.2,0.5-0.3,0.7c-0.4,0.3-0.7,0.7-0.5,1.2c0.1-0.1,0.2-0.2,0.4-0.3
				l-0.2,0.7c-0.1,0.4,0.1,0.6,0.5,0.6c0.1,0,0.2,0,0.4-0.1c0.3-0.1,0.6-0.1,0.9-0.2c1.4-0.6,3-0.8,4.4-1.2c0.2-0.1,0.4-0.1,0.6-0.1
				c0.8,0,1.7-0.1,2.6-0.2c0.9-0.1,1.7,0.3,2.2,1.1c0.1,0.2,0.3,0.4,0.5,0.6c0.1,0.2,0.2,0.5,0.2,0.7c0,0.3-0.2,0.6-0.5,0.5
				c-1.5-0.7-3-0.3-4.5,0c-1.8,0.3-3.4,0.8-5.2,1.4c-0.8,0.3-1.7,0.6-2.5,0.8c-0.5,0.1-0.8,0.5-1.1,0.9c-0.1,0.1-0.2,0.3-0.1,0.5
				c0.1,0.3-0.1,0.4-0.2,0.5c-0.4,0.1-0.8,0.1-1.1-0.3c-0.4-0.4-0.8-0.4-1.3-0.2l-1.9,0.8c-0.3,0.1-0.7,0.3-0.9,0.3
				c0.2-0.1,0.4-0.3,0.7-0.4c0.7-0.3,1.4-0.6,2.1-0.9c0.2-0.1,0.4-0.2,0.5-0.3c0.1,0,0.1-0.1,0.1-0.1l-0.1-0.1c-0.1,0-0.2,0-0.4,0.1
				c-1.6,0.6-3.1,1.3-4.6,2.2c-0.2,0.1-0.4,0.3-0.5,0.5l-0.4,0.2c-0.5-0.1-0.5-0.1-0.7-0.5c-0.1-0.2-0.1-0.4,0-0.5
				c0.4,0.1,0.7,0.2,0.9,0c0.3-0.2,0.7-0.4,0.9-0.8c0.2,0.1,0.3,0,0.5-0.1c0.5-0.3,0.9-0.6,1.4-0.8c0.2-0.1,0.3-0.1,0.4-0.3h-0.1
				c0.8-0.1,1.4-0.5,2.1-0.8c0.1,0,0.2-0.1,0.2-0.2c0.1-0.1,0.2-0.4,0.1-0.5c-0.2-0.1-0.3,0-0.4,0l-0.5,0.2c-2,0.8-3.9,1.9-5.6,3.2
				c0.1-0.4,0.4-0.7,0.7-0.9c0.5-0.4,0.9-0.8,1.5-1.1c0.3-0.3,0.6-0.5,0.9-0.6c0.3-0.2,0.6-0.3,0.9-0.4c0.6-0.2,1.2-0.4,1.7-0.8
				c0.2-0.1,0.4-0.3,0.7-0.3c0.6-0.3,1-0.6,1.2-1.2c0.1-0.3,0.2-0.5,0.2-0.8c0.2-0.6,0.5-1.2,0.8-1.8l2.3-5.3c0.2-0.5,0.4-1,0.7-1.4
				c0.3-0.5,0.5-1,0.7-1.4c0.7-1.4,1.4-2.9,2.1-4.4c0.4-0.7,0.7-1.5,1.1-2.2c0.1-0.1,0.1-0.1,0.1-0.1c0.8-1.4,1.4-2.8,2.1-4.2
				c0.4-0.7,0.8-1.5,1.1-2.2c0.3-0.5,0.5-1.1,0.9-1.6c0.4-0.6,0.7-1.2,0.9-1.9c0.4-0.9,0.9-1.8,1.4-2.5c0.1-0.1,0.2-0.2,0.2-0.3
				c0.4-1.3,1.4-2.2,1.8-3.5c0.2-0.5,0.6-0.8,0.8-1.3c0.7-1.2,1.4-2.5,2.1-3.7c0.7-1,1.4-2.1,2-3.2c0.2-0.3,0.4-0.5,0.6-0.7
				c0.1-0.2,0.2-0.4,0.3-0.7c0.1-0.3-0.1-0.5-0.4-0.5c-1,0.2-2,0.5-3,0.7c-1.1,0.3-2.2,0.6-3.3,0.9l-0.8,0.2
				c0.1-0.2,0.3-0.2,0.4-0.2c2.1-0.7,4.3-1.4,6.5-1.8l0.7-0.2c0.3-0.1,0.5-0.3,0.4-0.3c-0.2-0.2-0.4-0.1-0.5-0.1
				c-2.3,0.5-4.4,1.1-6.6,1.8c-0.4,0.1-0.7,0.2-0.9,0.3h-0.4c-0.1,0-0.1-0.1-0.2-0.1c0-0.1,0-0.2,0.1-0.3c0.2-0.3,0.4-0.5,0.7-0.7
				V134c0.1,0.1,0.2,0.1,0.3,0v0.1c0.4,0,0.7-0.1,1-0.4c0.2,0,0.4,0,0.5-0.2c0.3,0.1,0.5-0.1,0.8-0.1c1.8-0.6,3.7-1,5.5-1.4
				c0.4-0.1,0.7-0.2,0.9-0.5c0.1-0.1,0.2-0.2,0.1-0.3c-0.1-0.1-0.2,0-0.3,0c-1.1,0.1-2.1,0.4-3.2,0.7c-2,0.5-4,1.1-5.9,2
				c-0.1,0.1-0.2,0.1-0.4,0.1c-0.1,0.1-0.2,0-0.2-0.1c0-0.1,0.1-0.2,0.1-0.3c0.1-0.1,0.2-0.2,0.4-0.3c1.1-0.5,2.1-1.1,3.3-1.3
				c0.4-0.1,0.8-0.3,1.2-0.5c0.4-0.3,0.8-0.4,1.2-0.3c0.4,0,0.7-0.1,1.1-0.2c0.8-0.3,1.7-0.6,2.6-0.7c0.8-0.1,1.4-0.6,1.9-1.3
				l1.7-2.3c0.1-0.1,0.2-0.2,0.3-0.3c0.3-0.3,0.6-0.3,0.8-0.1c0.4,0.3,0.4,0.7,0.2,1.1c-0.2,0.4-0.5,0.7-0.7,1
				c-0.2,0.5,0,0.9,0.4,0.9c0.4,0,0.7,0,1.1-0.1c1.1-0.2,2.2-0.3,3.3-0.4c0.7-0.1,1.4,0.1,2.1,0.2c0.2,0,0.5,0.1,0.7,0.3
				c-1.9-0.1-3.7,0.1-5.6,0.3l-2.2,0.4c-0.2,0-0.4,0.1-0.5,0.3v0.3c0,0.1,0.1,0.1,0.2,0.1c0.7-0.1,1.4-0.1,2-0.3c1-0.1,2-0.3,3-0.4
				c0.2,0,0.5-0.1,0.7-0.1h2c0.3,0,0.7,0.1,0.9,0.4c0.1,0.1,0.1,0.2,0.1,0.3s-0.1,0.2-0.2,0.2c-0.2,0-0.4,0.1-0.6,0
				c-1.6-0.1-3.3,0.1-4.9,0.3c-1.1,0.1-2.1,0.3-3.1,0.5L122.5,132z M91.3,182.8h0.1C91.3,182.8,91.3,182.8,91.3,182.8L91.3,182.8z
				 M96.6,177.1c0.1-0.1,0.1-0.1,0.1-0.2C96.6,177,96.6,177,96.6,177.1l-0.1,0.1C96.6,177.2,96.6,177.2,96.6,177.1z M101.4,166.5
				c-0.7,0.8-1,1.8-1.4,2.7c0,0.1,0,0.2-0.1,0.3c-1,1.1-1.5,2.5-1.8,4c-0.5,0.5-0.7,1-0.8,1.8c0.4-0.5,0.7-1.1,0.8-1.8l0.4-0.6
				c0.5-1,0.9-2,1.4-3.1c0.1-0.1,0.1-0.2,0.1-0.3C100.6,168.6,101.1,167.6,101.4,166.5z M107.5,177c-0.8,0.1-1.5,0.3-2.3,0.5
				c-2.4,0.5-4.6,1.2-6.9,2l-0.5,0.2c-0.1,0.1-0.1,0.1-0.1,0.3c0,0,0.1,0.1,0.1,0.1c0.4-0.1,0.7-0.2,0.9-0.3
				c2.7-0.9,5.3-1.8,8.1-2.3C107.1,177.4,107.3,177.4,107.5,177z M98.2,178.3c0.4,0.3,0.7,0.1,1.1-0.1c0.4,0,0.8-0.1,1.2-0.4
				c0.4,0,0.8-0.1,1.1-0.3l0.7-0.2c0.2-0.1,0.4-0.1,0.7-0.2c0.6-0.3,1.2-0.5,1.9-0.6c0.8-0.2,1.5-0.3,2.4-0.3c0.1,0,0.2,0.1,0.3-0.1
				c-0.5-0.2-0.8-0.3-1.2-0.1c-0.7,0.1-1.4,0.2-2,0.4c-1.7,0.3-3.3,0.8-4.9,1.4C98.6,177.8,98.6,177.8,98.2,178.3z M104.9,159.5
				c-0.4,0.3-0.5,0.7-0.7,1.2c-0.4,0.3-0.6,0.6-0.8,1c-0.4,1-0.8,2.1-1.5,2.9c-0.2,0.2-0.3,0.5-0.2,0.8c0,0.1,0.1,0.1,0.1,0.1h0.1
				c0.1-0.1,0.1-0.1,0.2-0.3c0.7-1.3,1.4-2.7,2.1-4c0.1-0.2,0.1-0.4,0.1-0.6C104.6,160.4,104.7,160,104.9,159.5z M102.2,177.2
				L102.2,177.2C102.2,177.2,102.2,177.2,102.2,177.2L102.2,177.2z M102.6,167.6L102.6,167.6L102.6,167.6z M102.9,177
				c-0.1,0-0.1,0-0.1-0.1L102.9,177C102.8,177,102.9,177,102.9,177z M103.9,164.8v-0.4C103.6,164.6,103.6,164.6,103.9,164.8z
				 M104,164.1c-0.1,0-0.1,0-0.1,0.1v0.1C104,164.2,104,164.2,104,164.1C104,164.2,104,164.2,104,164.1z M105.5,158.2
				c-0.2,0.3-0.4,0.6-0.5,0.9C105.3,158.9,105.5,158.6,105.5,158.2z M105,162.5v-0.3c0.1-0.1,0.2-0.1,0.3-0.2
				C105.3,162.2,105.2,162.4,105,162.5z M106.3,156.6c-0.4,0.3-0.5,0.8-0.7,1.3C106,157.6,106.2,157.1,106.3,156.6z M105.7,161.3
				c0.1-0.2,0.2-0.4,0.3-0.5C105.9,160.9,105.9,161.1,105.7,161.3z M106,160.2c0.1-0.1,0.2-0.1,0.4-0.2c-0.1,0.3-0.2,0.5-0.4,0.7
				V160.2z M106,160.2L106,160.2L106,160.2z M107,155.3c-0.3,0.2-0.4,0.5-0.5,0.9C106.8,156,106.9,155.7,107,155.3z M106.9,158.7
				L106.9,158.7L106.9,158.7L106.9,158.7z M107.2,154.8C107.2,154.8,107.2,154.8,107.2,154.8l-0.1,0.3c0-0.1,0.1-0.1,0.1-0.1
				C107.4,154.8,107.3,154.8,107.2,154.8z M110.1,149.4c-0.3,0.3-0.5,0.6-0.7,1c-0.4,0.7-0.7,1.4-1.2,2v0.2
				c-0.1,0.3-0.3,0.7-0.5,1.1c0,0.1,0,0.1,0.1,0.1c0,0.1,0.1,0.1,0.1,0c0.2-0.3,0.4-0.6,0.5-0.8l1.5-2.9
				C110,150,110,149.7,110.1,149.4z M107.9,156.6v-0.1C107.9,156.5,107.9,156.5,107.9,156.6h-0.1
				C107.9,156.6,107.9,156.6,107.9,156.6z M108.8,155.3c-0.1,0.2-0.2,0.4-0.3,0.5C108.5,155.7,108.7,155.5,108.8,155.3z M109,155
				c0.1-0.1,0.1-0.2,0.2-0.3L109,155L109,155z M109.1,154.6c0.1-0.4,0.2-0.6,0.5-0.9C109.5,154,109.4,154.4,109.1,154.6z
				 M110.7,148.3c-0.2,0.2-0.4,0.5-0.5,0.8C110.6,148.9,110.7,148.6,110.7,148.3z M111.3,147.3c-0.2,0.1-0.3,0.3-0.4,0.5
				C111.1,147.7,111.2,147.5,111.3,147.3z M111.7,146.4c-0.1,0.1-0.2,0.3-0.3,0.5C111.6,146.7,111.7,146.6,111.7,146.4z
				 M114.9,140.8c-0.4,0.3-0.5,0.6-0.5,0.9c-0.7,0.6-1.1,1.4-1.3,2.3c-0.4,0.4-0.7,0.8-0.8,1.4c0.4-0.4,0.7-0.8,0.8-1.4
				c0.6-0.6,1-1.4,1.3-2.3C114.6,141.5,114.8,141.3,114.9,140.8z M113.8,145.8c0,0-0.1-0.1-0.1,0H113.8z M115.5,139.9v-0.1
				C115.4,139.8,115.4,139.8,115.5,139.9c-0.1,0-0.1,0-0.1,0C115.4,140,115.4,140,115.5,139.9z M116,139c-0.2,0.2-0.4,0.4-0.5,0.6
				C115.8,139.5,115.9,139.3,116,139z M116.5,138.1c-0.1,0.1-0.2,0.3-0.3,0.5C116.3,138.5,116.4,138.3,116.5,138.1z M116.3,141.6
				L116.3,141.6L116.3,141.6z"/>
			<path class="st6" d="M138.8,125.1c-1.4,5.5-3.9,12.4-5.6,15.4l-3.3,0.5c1.3-3.8,2.8-10.6,3.5-15.3L138.8,125.1z"/>
			<path class="st6" d="M187.2,163.3l-0.3,0.1c-0.5,0.3-1.1,0.6-1.6,0.8l-5.6,2.3c-1.3,0.6-2.5,1.2-3.9,1.9
				c-0.7,0.3-1.4,0.6-2.1,0.9c-0.7,0.2-1.2,0.1-1.7-0.5c-0.5-0.6-0.8-1.2-0.9-1.9c-0.1-0.5-0.2-1-0.1-1.6c0.1-0.8,0.4-1.4,0.7-2.1
				c0.2-0.4,0.2-0.9,0.4-1.3c0-0.1-0.1-0.1-0.1-0.1c-0.2,0-0.4,0.1-0.5,0.2c-0.8,0.5-1.5,1.1-2.3,1.8c-2.1,1.6-4,3.4-6.1,4.9
				c-1.1,0.8-2.1,1.5-3.3,2c-0.2,0.1-0.5,0.2-0.8,0.3c-0.3,0.1-0.5,0.1-0.6-0.3c0-0.1-0.1-0.1-0.2-0.2c-0.1,0-0.2,0-0.3-0.1
				c-0.4-0.1-0.7-0.4-0.8-0.8c-0.1-0.5-0.2-1-0.2-1.6c-0.1-0.5,0.1-0.8,0.2-1.1c0.7-1.4,1.2-2.7,2-4c0.2-0.3,0.5-0.7,0.4-1.2
				c0-0.1,0.1-0.1,0.2-0.3c0.1-0.1,0.1-0.1,0.1-0.1c-0.1-0.1-0.1-0.1-0.2-0.1l-0.4,0.2c-1.2,0.6-2.4,1.2-3.6,1.9
				c-1.4,0.8-2.8,1.6-4.3,2.3c-1,0.5-2,1-3,1.4c-0.4,0.2-0.9,0.4-1.4,0.5c-1.2,0.3-2.3-0.4-2.6-1.6c-0.1-0.6-0.2-1.2-0.2-1.8
				c-0.1-0.5,0-1,0.2-1.5c0.7-1.8,1.5-3.5,2.4-5.2c0.4-0.7,0.8-1.1,1.3-1.6c0.2-0.2,0.4-0.3,0.7-0.4h0.2c0,0.1,0,0.1,0,0.2
				c-0.1,0.2-0.3,0.3-0.2,0.6c0.1,0.1,0.2,0,0.4-0.1c0.2-0.1,0.4-0.1,0.5,0.1c0.1,0.2,0.1,0.4,0.1,0.6l-0.4,0.8
				c-0.2,0.5-0.5,0.9-0.8,1.4c-0.2,0.3-0.4,0.7-0.5,1.1c-0.2,0.4,0,0.8-0.1,1.2v0.1c-0.2,0-0.3,0-0.4,0.1c-0.2,0.3-0.3,0.6-0.4,0.9
				l-0.2,0.5c-0.1,0.3,0,0.6,0.3,0.7c0.3,0.1,0.5,0,0.7-0.1c0.5-0.3,1.1-0.6,1.7-0.7c0.5-0.1,1-0.5,1.4-0.8c0.4-0.3,0.7-0.5,1.1-0.6
				c0.3-0.1,0.6-0.3,0.9-0.5c0.5-0.3,0.9-0.5,1.4-0.6c0.4-0.1,0.7-0.4,1.1-0.6c0.2-0.2,0.4-0.4,0.7-0.5c1.2-0.5,2.2-1.2,3.4-1.6
				c0.3-0.1,0.5-0.3,0.8-0.5c0.5-0.3,0.9-0.5,1.5-0.4c0.4,0,0.8,0.1,0.9,0.6c0.1,0.3,0.2,0.6,0.4,0.8c0.5,0.9,0.7,1.9,0.1,2.8
				l-0.5,1c-0.1,0.2-0.2,0.4-0.1,0.6c0.1,0.5-0.1,0.8-0.2,1.1c-0.2,0.3-0.4,0.5-0.4,0.8c-0.1,0.2,0.1,0.3,0.2,0.3
				c0.2-0.1,0.4-0.2,0.5-0.3c0.4-0.2,0.6-0.5,0.9-0.7c0.8-0.5,1.5-1.2,2.3-1.9c0.7-0.7,1.4-1.2,2.1-1.6c0.4-0.2,0.7-0.4,1-0.6
				c0.9-0.8,1.9-1.4,2.9-2c0.7-0.3,1.3-0.7,2-1c0.5-0.3,1.1-0.1,1.3,0.6c0.2,0.3,0.3,0.6,0.5,0.9c0.5,0.8,0.6,1.8,0.2,2.7l-1.7,3.3
				c-0.4,0.7-0.2,0.8,0.5,0.9c0.2,0.1,0.5,0,0.7-0.1c1.1-0.5,2.2-1,3.3-1.6c0.9-0.5,2-0.9,3-1.3c0.8-0.3,1.7-0.6,2.4-1
				c0.5-0.3,1-0.4,1.5-0.5c0.4-0.1,0.5,0,0.7,0.3c0.1,0.2-0.1,0.4-0.4,0.5c-1.1,0.5-2.3,1-3.4,1.4c-2.7,1-5.3,2.3-7.9,3.6
				c-0.2,0.1-0.5,0.3-0.7,0.4c-0.1,0-0.1,0.1-0.1,0.1c0.1,0,0.1,0.1,0.1,0.1l0.5-0.2c0.9-0.5,1.8-0.9,2.7-1.4c0.7-0.3,1.3-0.6,2-0.8
				c-0.2,0.2-0.5,0.3-0.7,0.5c1-0.3,2-0.6,3-1.2c-0.4,0.1-0.7,0.1-1,0.1c0.7-0.4,1.4-0.7,2.1-0.8c-0.4,0.3-0.8,0.3-1.2,0.7
				c1.3-0.3,2.5-0.9,3.7-1.6l0.1-0.1c-0.2,0-0.4,0-0.5,0c0.4-0.3,0.8-0.5,1.3-0.5v0.1c0.2,0,0.5,0,0.7,0c0.2,0,0.4,0.1,0.4,0.4
				c0.1,0.2-0.1,0.4-0.2,0.5c-0.8,0.5-1.6,0.8-2.4,1.2c-2.1,0.8-4.2,1.8-6.3,2.7c-0.7,0.3-1.4,0.7-2.1,1.1c-0.9,0.5-1.7,0.8-2.7,1.1
				l-0.2,0.1c-0.1,0.1-0.1,0.1-0.1,0.2c0,0,0.1,0.1,0.1,0.1h0.4c0.3-0.1,0.5-0.2,0.8-0.3c0.6-0.3,1.2-0.6,1.8-0.9
				c1.8-1,3.6-1.7,5.5-2.5c1.4-0.6,2.9-1.2,4.3-1.9c0.2-0.1,0.5-0.2,0.8-0.3h0.2C187.4,163.1,187.3,163.2,187.2,163.3z M147,165.6
				c0.3-0.1,0.7-0.1,0.9-0.3c1.5-0.7,3-1.5,4.5-2.3c0.2-0.1,0.5-0.3,0.7-0.5c-0.2-0.1-0.4,0.3-0.7,0.1c0.5-0.3,0.9-0.6,1.5-0.8
				c0,0.2,0.1,0.3,0.3,0.2l0.5-0.4c-0.2,0-0.3,0-0.5,0c0.2-0.1,0.4-0.3,0.7-0.3c-0.1,0.1-0.1,0.3-0.1,0.3c0.2-0.1,0.4-0.2,0.5-0.3
				c0.2-0.1,0.5-0.2,0.7-0.4c0.1-0.1,0.2-0.1,0.3-0.1h-0.3c0.1-0.1,0.2-0.1,0.3-0.2c0,0.1,0.1,0.1,0.1,0.1c0-0.1,0-0.1-0.1-0.1
				l0.2-0.4c0.5-0.2,1-0.3,1.5-0.5c-0.1,0.1-0.2,0.2-0.2,0.3c0.7-0.1,1.2-0.4,1.7-0.8h-0.5c0.4-0.3,0.8-0.5,1.2-0.6l-0.4,0.4
				c0.5-0.1,1-0.4,1.5-0.5c0.4-0.1,0.5-0.5,0.6-0.8c0.1-0.1-0.1-0.2-0.2-0.2l-0.7,0.2c-1.3,0.6-2.5,1.2-3.8,1.9
				c-0.2,0.2-0.5,0.3-0.7,0.6c-0.4,0-0.7,0.2-1.1,0.4c-1.9,1-3.7,2.2-5.7,3.1c-0.8,0.4-1.5,0.8-2.3,1.1c-0.2,0.1-0.4,0.1-0.6,0.3
				c-0.1,0.1-0.1,0.3-0.1,0.4C146.8,165.6,146.9,165.7,147,165.6z M160.2,160.5l0.2-0.2c0.1,0,0.1-0.1,0.1-0.1
				c0-0.1-0.1-0.2-0.2-0.1c-0.2,0.1-0.5,0.2-0.8,0.3c-2,0.9-3.8,2.1-5.8,3.2c-1.6,0.8-3.1,1.8-4.8,2.5c-0.5,0.2-1,0.4-1.5,0.6
				l-0.5,0.2c0,0.1-0.1,0.1-0.1,0.2c0,0,0.1,0.1,0.1,0.1c0.4,0,0.7-0.1,0.9-0.2c0.8-0.3,1.6-0.6,2.4-1l3.4-1.9
				c1.8-1,3.7-2.1,5.6-3.1C159.7,160.8,159.9,160.7,160.2,160.5z M147.6,161.6c0.1,0,0.2-0.1,0.4-0.1
				C147.8,161.6,147.7,161.6,147.6,161.6z M155.3,161.1c0,0.1,0,0.1,0,0.2h-0.4L155.3,161.1z M155.9,160.7L155.9,160.7v0.2
				c-0.1,0-0.2,0-0.4,0L155.9,160.7z M163.9,167.6c0-0.1-0.1-0.1-0.1-0.1c-0.3,0.1-0.5,0.3-0.8,0.5c-1.1,0.7-2.1,1.4-3.3,1.9
				c-0.1,0.1-0.2,0.2-0.4,0.3c-0.1,0.1-0.1,0.2,0,0.3c0,0.1,0.1,0.1,0.1,0.1c0.1,0,0.2,0,0.3-0.1c0.3-0.1,0.5-0.2,0.8-0.3
				c1.1-0.6,2.1-1.5,3.2-2.1l0.2-0.2C164,167.6,164,167.6,163.9,167.6z M160.4,158.4c-0.1,0.1-0.2,0.1-0.4,0.1
				C160.1,158.5,160.2,158.5,160.4,158.4z M161.4,164.8L161.4,164.8L161.4,164.8L161.4,164.8z M165.6,163.9
				c-0.2,0.1-0.4,0.2-0.5,0.4C165.3,164.2,165.5,164.1,165.6,163.9z M166.4,163.2c-0.2,0.1-0.4,0.2-0.5,0.4
				C166.1,163.5,166.2,163.4,166.4,163.2z M169.3,160.9c-0.8,0.3-1.5,0.9-2.1,1.6C168,162.2,168.7,161.6,169.3,160.9z M170.6,160
				c-0.2,0.1-0.3,0.1-0.4,0.3c-0.2,0.1-0.4,0.2-0.5,0.4c0.2-0.1,0.4-0.2,0.5-0.4C170.3,160.3,170.4,160.2,170.6,160z M170.7,160
				c0.2-0.1,0.4-0.1,0.6-0.2l1.5-1c-0.3,0.1-0.6,0.1-0.8,0.2C171.3,159,170.9,159.3,170.7,160z M172.9,160.5c0-0.1-0.2-0.1-0.2,0
				c-0.4,0.3-0.9,0.5-1.3,0.8c-0.2,0.1-0.3,0.3-0.4,0.5c0.7-0.2,1.2-0.7,1.8-1C172.9,160.7,172.9,160.6,172.9,160.5z M173.6,157.8
				c0.2,0,0.4,0,0.7-0.1c0.1,0,0.1-0.1,0.1-0.2h-0.2C173.9,157.6,173.8,157.7,173.6,157.8c-0.4,0.1-0.7,0.3-0.9,0.6
				C173,158.3,173.3,158.2,173.6,157.8z M173.8,167.2c0.2,0,0.4-0.1,0.5-0.3c0.3,0,0.6-0.1,0.8-0.3c-0.3,0-0.6,0.1-0.8,0.3
				C173.9,167,173.6,167.2,173.8,167.2z M175.3,163.1L175.3,163.1L175.3,163.1L175.3,163.1C175.2,163,175.3,163.1,175.3,163.1z
				 M179.8,164.1c-0.2,0.1-0.3,0.1-0.5,0.2L179.8,164.1z M180.5,163.8c-0.2,0.1-0.5,0.3-0.7,0.3C180,163.9,180.3,163.8,180.5,163.8z
				 M180.6,163.8c-0.1,0-0.1,0-0.1,0C180.6,163.8,180.6,163.7,180.6,163.8L180.6,163.8z M180.9,166.5L180.9,166.5
				c-0.1,0.1-0.2,0.1-0.3,0.2C180.8,166.6,180.9,166.5,180.9,166.5z M183.6,162.5c-0.2,0.2-0.5,0.3-0.8,0.4
				C183,162.7,183.3,162.6,183.6,162.5z M184.1,162.4c-0.2,0-0.4,0.1-0.5,0.1L184.1,162.4L184.1,162.4z M184.9,162
				c-0.2,0.2-0.5,0.3-0.8,0.3C184.3,162.1,184.6,162,184.9,162z"/>
			<path class="st6" d="M266.6,117.5c-0.6,0.3-1.2,0.5-1.8,0.5l-2.5,0.2c-0.2,0-0.4,0.2-0.7,0.3c-1.2-0.1-2.4,0.2-3.6,0.3
				c-0.2,0-0.4,0.1-0.5,0.1c-1-0.1-2-0.1-3.1,0.2c-0.1,0.1-0.3,0-0.4,0.1c-0.7,0.1-1.5,0.1-2.3,0.1c-1.6,0.3-3.1,0.5-4.6,0.6
				c-2.1,0.2-4.1,0.4-6.1,0.7c-0.9,0.1-1.8,0.2-2.7,0.3c-0.4,0-0.7,0-1.1,0.3c0.2,0.3,0.5,0.2,0.7,0.1c1.9-0.1,3.8-0.4,5.6-0.6
				c1.4-0.1,2.8-0.2,4.2-0.5c2.4-0.4,4.8-0.5,7.1-0.8c0.9-0.2,1.8-0.1,2.7-0.5c1.3,0.2,2.7-0.1,4.2-0.4c0.8,0,1.6,0,2.5-0.1
				c0.5-0.1,1-0.1,1.5-0.1c0.1,0,0.4,0.1,0.5,0.2c0.2,0.1,0.4,0.3,0.2,0.5c-0.1,0.3-0.2,0.3-0.4,0.4c-0.1,0-0.3,0.1-0.4,0.1
				c-0.9,0.1-2,0.1-3,0.5c-0.1,0.1-0.3,0.1-0.4,0.1c-0.8-0.1-1.7,0.1-2.5,0.1c-0.8,0.1-1.6,0.3-2.3,0.3c-0.1,0-0.3,0.2-0.3,0.3
				c0.1,0.2,0,0.3-0.2,0.5c-1.2,0.1-2.3,0.4-3.4,0.4c-0.6,0.1-1.2,0.1-1.9,0.3c-1.7,0.2-3.6,0.5-5.4,0.6c-0.2,0.1-0.5,0.2-0.9-0.1
				c0.5-0.1,0.9-0.1,1.3-0.3h0.9c0.2-0.1,0.4-0.1,0.5-0.2c0-0.3-0.2-0.3-0.5-0.3c-0.5-0.1-1.1,0-1.7,0.3c-1.3,0.4-2.7,0.5-4,0.5
				c-1-0.1-2.2,0.1-3.3,0.6c0,0-0.1,0.1-0.1,0.1c0.1,0,0.1,0.1,0.1,0.1l4.3-0.5c0.4,0,0.8-0.1,1.2,0c-1.2,0.3-2.2,0.3-3.1,0.5
				c-1.2,0.3-2.4,0.5-3.6,0.5c-0.8,0.1-1.4,0.7-2,1c-0.3,0.3-0.5,0.6-0.4,1c0.1,0.3-0.1,0.6-0.4,0.9c-0.1-0.1-0.3-0.1-0.4,0.1
				c-0.2,0.1-0.3,0.3-0.5,0.5c-0.5,0.9-0.9,1.8-1.4,2.8c-0.6,0.8-1.2,1.8-1.7,2.7c-1.2,2.1-2.4,4.2-3.6,6.3
				c-0.2,0.5-0.5,0.8-0.7,1.2c-0.3,0.5-0.6,1.1-0.8,1.7c-0.8,0.6-1.1,1.5-1.5,2.4c-0.1,0.3-0.1,0.4-0.3,0.7
				c-0.7,0.6-1.1,1.6-1.6,2.4c-0.7,1.1-1.3,2.3-1.8,3.4c-0.2,0.3-0.5,0.7-0.7,1.1c-0.1,0.3-0.3,0.8-0.5,1.1
				c-0.1,0.2-0.4,0.5-0.3,0.8c0,0.6-0.3,1-0.7,1.4c-0.1-0.1-0.1-0.1-0.3,0c-0.1,0.3-0.4,0.6-0.6,0.8c-0.7,1.2-1.3,2.4-2,3.6
				c-0.2,0.4-0.3,0.7-0.2,1c0,0.3-0.2,0.3-0.4,0.3h0.1c-0.3,0.3-0.5,0.5-0.7,0.8c-0.4,0.8-0.8,1.4-1.1,2.2c-0.1,0.3-0.3,0.5-0.5,0.6
				c-0.1,0.3-0.3,0.7-0.5,1c0.4,0.8-0.3,1.5-0.8,2.1c0.1-0.3,0.1-0.6,0.2-0.8c-0.5,0.6-0.9,1.2-1.3,1.9c-2,3.9-4.2,7.7-6.2,11.6
				c-0.6,1.3-1.4,2.5-2.1,3.8c-0.9,1.6-1.7,3.3-2.4,4.9c-0.2,0.4-0.3,0.7-0.5,1.1l0.5-0.7c-0.1,0.3-0.1,0.6-0.5,0.7
				c-0.2,0.3-0.4,0.5-0.4,0.8c0,0.6-0.2,1.2-0.7,1.6c0.1-0.3,0.2-0.6,0.2-1c-0.5,0.8-0.9,1.6-1.2,2.3c-0.2,0.3-0.3,0.6-0.5,0.8
				c-0.2,0.3-0.4,0.6-0.8,0.6c-0.4,0-0.6-0.3-0.6-0.6c-0.1-0.6-0.1-1.4,0.1-2.1c0.2-0.6,0.4-1.2,0.7-1.9c1.5-3.1,3-6.2,4.6-9.3
				c1.4-2.7,2.8-5.3,4.3-7.8c0.5-1,1.1-2.2,1.6-3.2c2.1-3.8,4.2-7.5,6.3-11.3c0.7-1.4,1.5-2.9,2.3-4.3c1.5-2.9,3.1-5.7,4.9-8.5
				c1.3-2.3,2.7-4.7,4.1-7.1c1.1-1.8,2.1-3.6,3.1-5.4c0.9-1.7,2-3.3,2.9-5c0.5-0.8,1.1-1.7,1.6-2.5l0.6-1.2c0.2-0.5,0-0.8-0.5-0.7
				c-0.5,0-1.1,0.1-1.6,0.2c-2.3,0.2-4.6,0.5-6.9,0.8c-1.1,0.2-2.3,0.3-3.5,0.5c-1.8,0.2-3.6,0.5-5.5,0.8l-5.8,1
				c-2.1,0.4-4.4,0.8-6.5,1.2c-0.4,0.1-0.9,0.1-1.3,0.2c0.2-0.1,0.4-0.2,0.6-0.3c2.1-0.4,4.2-0.8,6.2-1.1c2.6-0.4,5.1-0.9,7.7-1.3
				c1.2-0.3,2.4-0.6,3.6-0.6h0.1c0.2-0.1,0.4-0.1,0.3-0.3c0-0.1-0.1-0.1-0.2-0.1c-0.2-0.1-0.5,0-0.7,0.1c-0.9,0.2-1.8,0.3-2.8,0.5
				c-2.1,0.3-4.2,0.5-6.2,1l-6.5,1.1c-0.7,0.1-1.3,0.3-2,0.4c-0.2,0.1-0.3,0.2-0.2,0.5c-0.3,0.2-0.5,0.5-0.8,0.5
				c-0.3-0.1-0.4-0.4-0.4-0.6c-0.1-1,0.5-1.9,1.4-2.2c1.2-0.3,2.4-0.6,3.6-0.9c0.9-0.3,1.9-0.6,2.8-0.7c2.4-0.3,4.7-0.9,6.9-1.4
				c1.1-0.3,2.3-0.4,3.4-0.6c0.2,0,0.5,0,0.6-0.1c2.1-0.5,4.2-0.6,6.3-1c1.3-0.3,2.7-0.4,4-0.5c0.3,0,0.5-0.1,0.9-0.1
				c1.1-0.3,2.2-0.4,3.1-0.5c0.9-0.1,1.8-0.1,2.6-0.7c0.3-0.1,0.5-0.1,0.7-0.1c1.2,0.3,2.6,0.2,3.9-0.1c1.2-0.3,2.6-0.4,3.9-0.5
				c0.8,0,1.6-0.1,2.3-0.2c1.5-0.4,3.1-0.3,4.6-0.6c0.5-0.1,1.1-0.1,1.5-0.1c2.3-0.3,4.5-0.6,6.7-0.8c1.8-0.1,3.7-0.4,5.5-0.5
				c0.6-0.1,1.4-0.2,2-0.1c0.2,0,0.5,0.1,0.6,0.2C266.8,117.2,266.7,117.5,266.6,117.5z M215.4,124.3c-0.3-0.2-0.6-0.3-0.9-0.1
				c-0.4,0.1-0.6,0.3-0.9,0.5c-0.7-0.1-1.5,0.2-2.3,0.2s-1.4,0.1-2.1,0.3c-2.4,0.5-5,1-7.5,1.6c-0.4,0.1-0.7,0.2-1.1,0.3
				c-0.1,0.1-0.2,0.2-0.3,0.3c-0.1,0-0.1,0.1-0.1,0.1c0,0.1,0.1,0.1,0.1,0.1c0.1,0.1,0.1,0.1,0.3,0.1c1.2-0.3,2.3-0.4,3.4-0.9
				c0.6-0.1,1.1-0.2,1.7-0.3c1-0.2,2-0.5,3-0.7c1.2-0.3,2.5-0.5,3.7-0.6c0.4-0.1,0.7-0.1,1.1-0.3
				C214.2,124.6,214.8,124.6,215.4,124.3z M211,167.6c0,0,0,0.1,0,0.1h-0.1L211,167.6z M233.2,121.7c-0.1,0-0.2-0.1-0.2-0.1
				c-0.1,0-0.3,0.1-0.4,0.1c-1,0.1-2,0.3-3,0.2c-0.6-0.1-1.2,0.2-1.8,0.5h-0.1c-0.6,0-1.1,0-1.5,0c-0.9,0.5-1.7-0.1-2.6,0.3
				c-0.2,0.1-0.5,0-0.8-0.1c-0.4,0-0.6,0.5-1,0.5l-0.5,0.1c-0.6,0.2-1.4,0.3-2,0.3c-0.5,0-1,0.1-1.5,0c-0.4,0-0.9,0-1.3,0.1
				c-0.2,0.1-0.4,0.1-0.3,0.3c0,0,0.1,0.1,0.2,0.2c0.2,0.1,0.5,0,0.9,0c2.9-0.5,5.8-0.9,8.7-1.4c0.6-0.1,1.2-0.1,1.8-0.4
				c0.7,0.1,1.2,0.1,1.8,0c1-0.2,2.1-0.5,3.1-0.5c0.1,0,0.2,0,0.3-0.1C233.1,121.8,233.2,121.8,233.2,121.7z M225.1,124.4
				c0,0-0.2-0.1-0.2-0.1c-0.4,0.1-0.8,0.2-1.2,0.3c-0.2,0-0.5,0.2-0.6,0.3c-0.4,0-0.7-0.1-1.1-0.1c-0.3-0.1-0.6,0-0.8,0.3h-0.4
				c-0.1,0-0.1,0-0.1,0.1h0.1c0.2,0,0.3-0.1,0.4-0.1c0.6-0.1,1.2,0,1.9-0.3c0.6-0.1,1.1-0.1,1.8-0.3
				C225,124.6,225.1,124.6,225.1,124.4z M225.4,142c0.1-0.1,0.1-0.2,0.1-0.3c0,0.1,0.1,0.2,0.1,0.3c-0.1,0.1-0.1,0.1-0.1,0.1
				C225.4,142.2,225.4,142.2,225.4,142z M227.1,124.2l-0.1,0.1L227.1,124.2L227.1,124.2z M232.3,123.5c-0.1-0.1-0.3-0.2-0.4-0.1
				c-1.1,0.1-2.3,0.3-3.4,0.5l-0.1,0.1l0.1,0.1l0.5,0.1c0.9-0.1,1.9-0.3,2.8-0.4c0.1,0,0.2-0.1,0.3-0.1c0.1-0.1,0.2-0.1,0.2-0.2
				C232.3,123.5,232.4,123.5,232.3,123.5z M249,121.6c0,0,0.1,0.1,0.1,0l0.2-0.1c-0.1,0-0.1-0.1-0.2-0.1
				C249.1,121.4,249,121.4,249,121.6z M250.3,121.5C250.3,121.5,250.3,121.5,250.3,121.5c0.1-0.1,0.1-0.1,0.1-0.1h-0.1
				C250.2,121.4,250.2,121.4,250.3,121.5z M251.6,121.1c0.8,0.4,1.7,0.4,3.4-0.1c-0.8-0.2-1.6-0.2-2.3-0.2
				C252.3,120.7,251.9,120.8,251.6,121.1z M256.1,120.7h0.1c0,0,0,0,0.1-0.1h-0.2C256.1,120.6,256.1,120.6,256.1,120.7z"/>
			<path class="st6" d="M248.6,160.5c0.2,0.5-0.1,0.6-0.4,0.7c-0.8,0.2-1.4,0.7-2.1,1c-1,0.5-2,0.8-3.1,0.8c-1.1,0-2.2,0.1-3.3,0.2
				c-1.2,0.2-2.4,0.1-3.7-0.1c-0.8-0.1-1.6-0.3-2.4-0.5c-0.2-0.1-0.4-0.1-0.5-0.1c-0.5-0.1-0.7,0-0.9,0.5c-0.1,0.4-0.2,0.8-0.4,1.2
				c-0.4,0.6-0.9,1.2-1.4,1.8c-0.1,0.1-0.1,0.2-0.1,0.2c0.3,0.5-0.1,0.6-0.4,0.7c-0.8,0.6-1.8,1-2.8,1.3c-2.2,0.5-3.7-1.2-4-2.9
				c-0.1-0.6-0.2-1.2-0.2-1.9c0-1,0.3-1.8,0.8-2.6c0.7-1,1.5-1.9,2.4-2.8c0.3-0.3,0.7-0.5,1.2-0.5c0.2-0.1,0.5,0.1,0.5,0.2
				c0,0.2-0.2,0.2-0.4,0.3c-0.1,0-0.1,0-0.1,0.1c-0.1,0.1-0.1,0.1-0.1,0.2l0.2,0.2h0.1c0.5-0.2,0.9-0.3,1.2-0.7
				c0.3-0.5,0.5-0.5,0.8-0.2c2,1.5,4.3,1.9,6.6,2.1c0.9,0.1,1.8,0.1,2.7,0.1l3.4-0.2c0.5-0.1,1.1-0.1,1.6-0.1c0.4,0,0.8,0,1.1-0.1
				c0.4-0.1,0.7-0.2,1.1-0.2c0.2,0.1,0.5-0.1,0.7-0.2l0.7-0.3c0.4-0.2,0.6-0.1,0.7,0.4c0.1,0.2,0.1,0.5,0.2,0.6
				c0.2,0.3,0.2,0.6,0,0.9V160.5z M230,161.3l-0.9-1.2c-0.3-0.3-0.6-0.4-0.9-0.1c-0.2,0.1-0.4,0.3-0.5,0.4l-0.7,0.6
				c-0.6,0.4-1.1,0.9-1.2,1.7c0.1,0,0.2,0.1,0.1,0.3c-0.2,0.4-0.4,0.8-0.5,1.2c-0.1,0.4,0,0.6,0.4,0.6c0.7,0.1,1.4,0,2-0.4
				c0.9-0.5,1.6-1.2,2.1-2c0.1-0.1,0.2-0.3,0.3-0.5C230.1,161.6,230.1,161.5,230,161.3z M226.9,166.1c0.4,0.2,0.7,0,1.1-0.2v-0.1
				c0-0.1-0.1-0.1-0.1-0.1h-0.4c0.2-0.1,0.4-0.3,0.7-0.5c-0.5,0.1-1.1,0.2-1.5,0.4c-0.1,0-0.1,0.1-0.1,0.1c0,0.1,0.1,0.1,0.1,0.1
				c0.1,0.1,0.1,0.1,0.2,0.1C226.8,166.1,226.9,166.1,226.9,166.1z M229.1,166.9c0-0.1-0.1-0.1-0.1-0.1c-0.1,0.1-0.2,0.1-0.4,0.1
				c-0.5,0.2-0.9,0.3-1.5,0.5l-0.2,0.1c-0.1,0-0.1,0.1-0.1,0.1c0,0.1,0.1,0.1,0.1,0.1h0.1c0.4,0,0.8-0.1,1.3-0.3
				c0.2-0.1,0.5-0.2,0.6-0.4C229.1,167,229.1,166.9,229.1,166.9z M231.9,164.6c-0.1,0.1-0.1,0.1-0.1,0.2v-0.1
				C231.8,164.6,231.9,164.6,231.9,164.6z M231.9,164.2c0.1,0,0.1,0,0.1,0c-0.1,0.1-0.1,0.3-0.1,0.4V164.2z M237.3,160.9
				c0.3,0,0.6,0.1,0.8,0.1h2.5c0.1,0,0.3-0.1,0.5,0.2h-1.7c0.2,0.1,0.3,0.1,0.4,0.1c1.5,0.1,2.9-0.1,4.3-0.2c0.2,0,0.4-0.1,0.6-0.1
				c0.2-0.1,0.3-0.1,0.4-0.3c0.2-0.3,0.5-0.5,0.9-0.6c0.2-0.1,0.5-0.1,0.7-0.3c0.1,0,0.1-0.1,0.1-0.2c0-0.1-0.1-0.1-0.2,0
				c-0.1,0-0.2,0.1-0.3,0.1c-0.6,0.3-1.2,0.5-1.8,0.5c-1,0.1-2,0.3-3,0.3c-1.3,0-2.6,0.1-3.9,0.2
				C237.4,160.8,237.3,160.8,237.3,160.9z M247.1,161.3c-0.4-0.2-0.7,0.1-0.9,0.3c-0.5,0.3-1.1,0.5-1.6,0.6
				c-0.6,0.1-1.2,0.2-1.8,0.3c-1.6,0.1-3.1,0.2-4.7,0.2c-0.2,0-0.5,0-0.7,0.1c0.1,0.2,0.4,0.2,0.5,0.2c0.4,0.1,0.8,0.1,1.3,0.1
				c1.4,0,2.8-0.1,4.3-0.2c1.1-0.1,2-0.3,2.9-0.9C246.5,161.6,246.9,161.6,247.1,161.3z M243.2,160.9c-0.3,0-0.7,0-0.9,0v-0.1
				C242.5,160.9,242.9,160.9,243.2,160.9L243.2,160.9z M244.3,160.7L244.3,160.7C244.3,160.7,244.3,160.7,244.3,160.7h0.1H244.3z"/>
			<path class="st6" d="M280.1,124.1c-0.2,0.5-0.4,0.9-0.8,1.3l-2.3,2.5c-1,1-2,2-3,3.1c-0.9,1-1.9,1.9-2.8,3
				c-0.1,0.1-0.2,0.2-0.4,0.4c-1.2,1.6-2.5,2.9-3.9,4.4c-0.3,0.4-0.6,0.7-0.8,1.2c-0.7,0.6-1.3,1.3-2,2c-0.1,0.1-0.2,0.4-0.2,0.6
				c0,0.1,0,0.3-0.1,0.4c-0.4,0.5-0.7,1-1.1,1.4c-0.7,0.5-1.1,1.2-1.6,1.8c-0.3,0.4-0.6,0.7-0.9,1h0.1c-0.6,0.5-1.2,1-1.6,1.8
				c-0.1,0.2-0.3,0.4-0.4,0.5c-1.5,1.6-2.8,3.3-4,5c-0.4,0.5-0.8,1-1.2,1.4c-0.5,0.3-0.8,0.8-1,1.4c-0.1,0.1,0,0.3,0.1,0.3
				c-0.1,0.3-0.2,0.5-0.4,0.8c-0.2,0.5-0.5,0.9-1,1.2c0,0-0.1,0-0.1,0.1c-0.3,0.2-0.6,0.5-0.5,0.8c0.1,0.3,0.4,0.5,0.7,0.6
				c0.1,0.1,0.3,0.1,0.5,0.1c1.1,0.1,2.1,0.1,3.2,0.1c1.1-0.1,2.3-0.3,3.4-0.5c0.3,0,0.6-0.1,0.9-0.2c1.3-0.4,2.6-0.8,3.9-1.1
				c1.2-0.4,2.5-0.7,3.7-1c0.2-0.1,0.4-0.1,0.7-0.1c0.1-0.1,0.2,0,0.3,0.1c0.1,0,0.2,0.1,0.2,0.2c0,0.1-0.1,0.1-0.1,0.2
				c-0.1,0.1-0.2,0.1-0.3,0.1l-0.6,0.2c-2.7,0.8-5.5,1.6-8.1,2.4c-0.7,0.2-1.3,0.3-2,0.5c-0.2,0.1-0.5,0.1-0.8,0.3
				c0.2-0.1,0.5-0.1,0.8-0.1c0.2-0.1,0.5-0.1,0.7-0.1c0.6-0.1,1.2-0.2,1.8-0.3l-0.6,0.4c0.4,0,0.7-0.1,1-0.1
				c2.6-0.8,5.2-1.5,7.8-2.3c0.2-0.1,0.4-0.1,0.5-0.1c0.2-0.1,0.3,0,0.4,0.1s0.2,0.4,0,0.5c-0.2,0.2-0.4,0.3-0.7,0.4
				c-1,0.3-2,0.7-3,1c-2.5,0.8-5,1.6-7.5,2.1c-0.1,0-0.2,0.1-0.3,0.1l-0.1,0.1c0,0.1,0.1,0.1,0.1,0.1c0.1,0.1,0.2,0.1,0.2,0.1
				c1.2-0.1,2.3-0.3,3.4-0.7c2.5-0.7,5.1-1.5,7.5-2.5c0.1-0.1,0.2-0.1,0.3-0.1c0.1,0,0.1,0.1,0.1,0.1v0.1c-0.2,0.3-0.5,0.3-0.8,0.4
				c-1.7,0.6-3.3,1.2-5,1.8c-0.8,0.3-1.7,0.5-2.4,0.8c-0.5,0.3-1.1,0.3-1.7,0.4c-1.2,0.2-2.5,0.5-3.9,0.5c-0.1,0-0.1,0-0.2,0.1
				c-0.5,0-0.6,0.1-0.5,0.7c0.5,1.8,0.3,2.1-0.4,3.4c-0.2,0.5-0.4,0.9-0.5,1.4c-0.1,0.4-0.3,0.7-0.5,1c-1,1.2-2.2,2.2-3.6,2.8
				c-1.9,0.8-3.7,0.3-4.9-1.5c-0.7-1-1.1-2.3-1.1-3.6c0-0.5,0.1-1,0.2-1.5c0.5-1.5,1.1-2.9,1.9-4.2c0.5-1,1.1-2.1,1.7-3.1
				c0.5-0.9,1.1-1.8,1.7-2.7c0.7-0.9,1.2-1.9,1.8-2.9c0.5-0.9,1.1-1.8,1.8-2.7c1.1-1.3,2.1-2.7,3.1-4c0.4-0.5,0.9-0.9,1.2-1.5
				c0.1-0.1,0.2-0.3,0.4-0.5c0.8-0.6,1.3-1.4,1.9-2.1c0.5-0.6,0.9-1.2,1.4-1.7c0.9-0.9,1.7-1.9,2.5-2.8c0.9-1,1.9-2,2.8-3.1
				c0.4-0.5,0.9-0.9,1.4-1.4c1.2-1.4,2.5-2.8,3.8-4.2c1.1-1.1,2.1-2.2,3.3-3.2c0.2-0.2,0.5-0.5,0.7-0.7c0.2-0.2,0.3-0.4,0.5-0.5
				c0.9-0.8,1.7-1.6,2.5-2.5c0.5-0.5,1-0.8,1.6-1.1c0.1,0,0.2-0.1,0.3-0.1c0.2-0.1,0.4,0.1,0.3,0.3c-0.1,0.3-0.1,0.5,0.2,0.6
				C280.2,123.6,280.3,123.9,280.1,124.1z M249.3,164c-0.2-0.1-0.4-0.2-0.7-0.3c-0.3-0.1-0.5,0-0.7,0.2c-0.3,0.5-0.6,1-0.7,1.6
				c-0.1,0.5-0.2,0.9-0.4,1.4c-0.2,0.6-0.5,1.2-0.8,1.9c-0.2,0.3-0.3,0.7-0.4,1l-0.1,0.1c-0.1-0.1-0.1-0.1-0.1-0.3v-0.1
				c-0.1,0-0.1,0-0.1,0.1l-0.2,0.5c-0.2,0.8,0.4,1.2,1.1,1.2l1.3-0.3c0.6-0.1,1.1-0.5,1.5-0.9c0.7-0.9,1.4-1.8,2.1-2.7
				c0.2-0.4,0.4-0.8,0.6-1.3c0.2-0.6,0.1-0.9-0.4-1.2c-0.3-0.1-0.6-0.3-0.9-0.3C250.2,164.4,249.7,164.2,249.3,164z M247.4,172.3
				l0.9-0.2c0,0.1-0.1,0.3,0.1,0.2c0.5-0.1,0.9-0.3,1.2-0.7c0.1-0.1,0.1-0.3,0.1-0.4c0.1-0.3,0.3-0.5,0.3-0.7c0.5,0,0.9-0.3,1.2-0.6
				c0-0.1,0.1-0.1,0.1-0.1c0.1-0.1,0.1-0.1,0-0.2c0,0-0.1,0-0.1,0.1c-0.4,0.3-0.7,0.7-1.1,0.9c-0.8,0.6-1.7,1.1-2.6,1.6
				C247.4,172,247.2,172.1,247.4,172.3z M252,171.4c-0.4,0.1-0.8,0.3-1.1,0.6c-0.8,0.6-1.6,1.2-2.5,1.6c-0.2,0.1-0.3,0.1-0.4,0.3
				c-0.1,0-0.1,0.1-0.1,0.1c0,0,0.1,0.1,0.1,0.1c0.5-0.1,1-0.3,1.4-0.5c0.8-0.4,1.4-1,2.1-1.5C251.9,171.8,252,171.6,252,171.4z
				 M251.4,158.3L251.4,158.3c-0.1-0.1-0.2,0-0.2,0.1c0,0.1,0.1,0.1,0.1,0.1C251.4,158.5,251.4,158.5,251.4,158.3z M258.2,162.3
				L258.2,162.3c0.1,0,0.2-0.1,0.2-0.1L258.2,162.3C258.2,162.2,258.1,162.3,258.2,162.3z M259.7,161.7c-0.2,0.1-0.5,0.1-0.7,0.1
				C259.3,161.7,259.5,161.7,259.7,161.7z M261.4,161.2c0.1,0,0.1-0.1,0.1-0.1C261.5,161.2,261.5,161.2,261.4,161.2z M261.5,161.1
				c0.2-0.1,0.4-0.1,0.7-0.2l0.7-0.1c-0.2,0.1-0.4,0.1-0.7,0.2L261.5,161.1z M265.9,140.5c0.1-0.3,0.2-0.5,0.4-0.7h0.3
				C266.4,140.1,266.3,140.4,265.9,140.5z M270.2,135.7c-0.2,0.4-0.5,0.5-0.7,0.6C269.7,136.2,269.9,135.9,270.2,135.7z"/>
			<path class="st6" d="M282,163.3c-0.1,0.2-0.3,0.2-0.4,0.3c-1.8,0.7-3.6,1.3-5.5,1.9c-1.5,0.5-3.1,1.1-4.6,1.8
				c-1,0.5-2.1,0.9-3.1,1.3c-0.7,0.3-1.4,0.5-2.2,0.6c0,0.1-0.1,0.1-0.1,0.1c-1.6,0.3-2.8-0.8-3-2.5c0-0.2-0.1-0.5-0.1-0.7
				c-0.2-0.6,0-1.3,0.3-1.9c0.7-1.2,1.5-2.5,2.4-3.6c0.7-0.8,1.2-1.6,1.8-2.2c0.2-0.3,0.5-0.5,0.8-0.5c0.4,0,0.5,0.1,0.4,0.5
				c0,0.1-0.1,0.1-0.1,0.2c0,0.2,0.1,0.2,0.2,0.1c0.2-0.1,0.4-0.1,0.5,0.1c0.2,0.2,0.2,0.4,0.2,0.7c0,0.2-0.1,0.4-0.2,0.6
				c-0.2,0.3-0.4,0.5-0.6,0.7c-0.2,0.4-0.5,0.8-0.5,1.3c0,0.3-0.2,0.6-0.4,0.8c-0.4,0.5-0.7,1-1.1,1.6c-0.1,0.1-0.2,0.4-0.2,0.6
				c-0.1,0.1,0.1,0.3,0.2,0.3l0.7-0.2c0.9-0.3,1.9-0.6,2.8-1c0.5-0.2,0.9-0.4,1.4-0.6c0.9-0.5,1.8-0.8,2.8-1
				c0.5-0.1,0.9-0.2,1.4-0.4c0.4-0.2,0.8-0.3,1.1-0.5c1.2-0.5,2.4-0.5,3.6-0.8h0.4c0.2,0,0.3,0.2,0.3,0.3c-0.1,0.2-0.2,0.3-0.3,0.3
				c-1.5,0.3-2.9,0.7-4.3,1.2c-2.3,0.6-4.4,1.6-6.6,2.6c-1.4,0.6-2.7,1.2-4.1,1.6c-0.1,0.1-0.2,0.1-0.2,0.1c-0.1,0-0.2,0.1-0.1,0.2
				c0,0.1,0.1,0.1,0.2,0.1h0.2c-0.1,0.1-0.2,0.1-0.2,0.2c0,0.1,0.1,0.1,0.2,0.1c0.9-0.2,1.8-0.5,2.6-1h-0.5c0.9-0.5,1.8-1,2.8-1.3
				l-0.1,0.1c-0.1,0.1-0.2,0.2-0.3,0.3c0.3,0,0.6-0.1,0.8-0.4c-0.2,0-0.4,0.1-0.5,0.1c0.7-0.5,1.5-0.8,2.3-1.1
				c0.4-0.2,0.8-0.3,1.1-0.4c-0.1,0.1-0.2,0.3-0.3,0.4c-0.2,0-0.4,0.1-0.5,0.2c0.2-0.1,0.3-0.1,0.5-0.2c0.4,0,0.7-0.1,1-0.4
				c0.3,0.1,0.5-0.1,0.8-0.1c1.2-0.4,2.5-0.7,3.7-1.1c0.3-0.1,0.5-0.1,0.8-0.3c0.1,0,0.2-0.1,0.2-0.1l-0.1-0.1c-0.1,0-0.2,0-0.2,0
				c0.2-0.1,0.5-0.2,0.8-0.2c0.2,0.1,0.4,0.2,0.7,0.3c0.1,0.1,0.2,0.3,0.2,0.5c0,0.2-0.1,0.3-0.2,0.4c-0.2,0.1-0.5,0.2-0.7,0.3
				c-1.6,0.5-3.2,1-4.8,1.5c-2,0.6-3.9,1.5-5.8,2.3c-0.9,0.4-1.8,0.8-2.8,1.2c-0.6,0.2-1.2,0.3-1.8,0.5l-0.4,0.2c0,0-0.1,0,0,0.1
				c0,0.1,0,0.1,0.1,0.1c0.2,0.1,0.4,0.1,0.5,0c0.9-0.1,1.8-0.5,2.7-0.8c1.2-0.6,2.4-1.1,3.7-1.6c1.7-0.8,3.4-1.4,5.2-1.9
				c1.2-0.3,2.4-0.7,3.6-1.2c0.1-0.1,0.2-0.1,0.3-0.1C281.7,163.1,282,163.1,282,163.3z M267.2,166.6c0.2-0.1,0.3-0.1,0.5-0.1
				C267.6,166.5,267.4,166.5,267.2,166.6z M268.2,166.3L268.2,166.3l-0.5,0.2L268.2,166.3z M275,163.5h-0.7c0.4-0.2,0.7-0.3,1-0.3
				C275.3,163.3,275.2,163.5,275,163.5z M275,148.4c-0.1-0.2,0-0.5,0.2-0.6c0.8-0.9,1.4-1.9,2.4-2.7c0.3-0.2,0.6-0.5,0.8-0.8
				c0.6-0.6,1.2-1,1.9-1.4c0.1-0.1,0.2-0.1,0.4-0.1c0.3-0.1,0.5-0.1,0.5,0.1c0.1,0.2-0.1,0.3-0.2,0.4l-0.6,0.6
				c0.3-0.1,0.5-0.2,0.8-0.3c0.2-0.1,0.4-0.1,0.5,0.1c0.1,0.1,0.1,0.3,0.1,0.5c-0.1,0.4-0.4,0.6-0.6,0.8l-0.6,0.6
				c-0.1,0.1-0.1,0.3,0,0.4h-0.1c-0.1,0.3-0.2,0.5-0.4,0.6c-0.5,0.4-0.9,0.9-1.3,1.4c-0.3,0.3-0.5,0.5-0.9,0.6
				c-0.1-0.3-0.2-0.1-0.3,0c-0.4,0.3-0.7,0.7-1,1l-0.4,0.4c-0.4,0.3-0.7,0.3-1-0.1c-0.1-0.1-0.2-0.2-0.2-0.4
				C275.1,149.2,275.1,148.9,275,148.4z M275,163.5L275,163.5L275,163.5z M276.5,162.8c-0.4,0.3-0.7,0.4-1.1,0.4
				C275.8,162.9,276.2,162.9,276.5,162.8z M277.7,162.5c-0.4,0.2-0.8,0.3-1.2,0.3C276.9,162.6,277.3,162.6,277.7,162.5z
				 M277.5,148.7c0.1,0,0.2,0,0.3,0l-0.1,0.3c-0.1,0.1-0.1,0.1-0.2,0.1c-0.1,0-0.1-0.1-0.1-0.2V148.7z M278.4,162.3
				c-0.2,0.1-0.5,0.1-0.7,0.2C277.9,162.4,278.1,162.3,278.4,162.3z M279,162.1c-0.2,0.1-0.4,0.1-0.7,0.2L279,162.1z M279.7,162
				l-0.7,0.1C279.2,162,279.4,162,279.7,162L279.7,162z M281.1,161.6L281.1,161.6L281.1,161.6z"/>
			<path class="st6" d="M304.3,168.9c-0.4,0.6-0.7,1.2-1.1,1.8c-0.1,0.1-0.2,0.3-0.4,0.5c-0.4,0.3-0.8,0.4-0.9,0.1
				c-0.1-0.2-0.2-0.4-0.4-0.6c-0.2-0.1-0.2-0.4-0.1-0.7c0.3-0.7,0.7-1.4,1.1-2.1c0.2-0.3,0.4-0.5,0.6-0.6h0.2c0.1,0,0.1,0.1,0.1,0.2
				c-0.1,0.2-0.2,0.3-0.2,0.5c0.2,0,0.5-0.1,0.7-0.3c0.2-0.1,0.3-0.1,0.4,0c0.1,0.1,0.1,0.3-0.1,0.5c-0.1,0.2-0.2,0.4-0.4,0.6
				c-0.1,0.1-0.2,0.3-0.2,0.4c0.3-0.1,0.4-0.5,0.7-0.6C304.6,168.6,304.4,168.8,304.3,168.9z M303,168.5c-0.5,0.6-0.5,0.6-0.7,1.2
				C302.7,169.3,302.9,168.9,303,168.5z M334.8,123.1L334.8,123.1c-0.3,0.6-0.7,1.3-1.2,1.9c-1.8,2.3-3.6,4.6-5.3,7
				c-2,2.7-3.9,5.3-5.8,7.9c-1.4,1.9-2.7,3.8-4.1,5.8l-4,6c-0.9,1.4-2,2.9-2.8,4.4l-0.7,1.4c-0.2,0.3-0.4,0.7-0.7,0.8
				c-0.4,0.1-0.8,0.2-1-0.2c-0.1-0.2-0.2-0.3-0.3-0.4c-0.3-0.3-0.3-0.6-0.2-1c0.2-0.6,0.4-1.3,0.8-1.9c0.6-1,1.1-1.9,1.7-2.8
				c0.4-0.5,0.7-1.1,0.9-1.7c0.8-1.2,1.7-2.5,2.5-3.8c1.2-1.8,2.5-3.6,3.7-5.5c1.2-1.9,2.5-3.7,4-5.5c0.8-1,1.6-2.1,2.4-3.2
				c0.9-1.2,1.8-2.4,2.8-3.5l0.4-0.5c0.9-1.3,2-2.4,3.1-3.6c1.1-1.3,2.3-2.6,3.5-3.8c0.1-0.1,0.3-0.3,0.4-0.5
				c0.1-0.1,0.2-0.1,0.4-0.1c0.1,0.1,0,0.3-0.1,0.4c-0.1,0.2-0.4,0.4-0.5,0.6s-0.4,0.5-0.5,0.8c0.1,0.1,0.2-0.1,0.3-0.1
				c0.4-0.4,0.7-0.8,1-1.2c0.1-0.1,0.3-0.2,0.4-0.1c0.1,0.1,0.1,0.2,0.1,0.3c-0.1,0.3-0.3,0.6-0.5,0.9l-0.9,1.1
				c-0.1,0.1-0.2,0.3-0.1,0.3C334.5,123.4,334.6,123.2,334.8,123.1z M311.3,153.5c-0.8,0.7-1.3,1.6-1.4,2.5c-0.1,0-0.1,0.1-0.1,0.1
				v0.1c0,0.1,0,0,0.1-0.1c0-0.1,0.1-0.1,0.1-0.1C310.5,155.1,311,154.3,311.3,153.5z M331,127.7C331,127.7,330.9,127.7,331,127.7
				c-0.1,0.1-0.2,0.1-0.2,0.2c-0.4,0.3-0.7,0.7-0.9,1.1c-0.8,1-1.7,2.1-2.4,3.2c-3.2,4.2-6.3,8.6-9.3,12.9c-0.2,0.3-0.4,0.6-0.5,1
				c-0.6,0.5-0.9,1.1-1.4,1.7l-3,4.5c-0.3,0.4-0.5,0.8-0.7,1.2c-0.5,0.5-0.7,1-1,1.5c-0.1,0.1,0,0.1,0,0.2l0.2-0.1
				c0.4-0.5,0.7-1,0.8-1.6c0.4-0.3,0.6-0.7,0.9-1.1c1.1-1.6,2.2-3.3,3.3-4.9c0.3-0.5,0.6-0.9,0.8-1.4c0.4-0.3,0.6-0.6,0.8-1
				c0.5-0.7,1-1.4,1.5-2.2c1.9-2.6,3.7-5.3,5.7-7.9c1.5-1.9,2.8-3.9,4.3-5.8c0.3-0.5,0.6-0.8,0.8-1.3
				C330.8,127.9,330.9,127.9,331,127.7C331,127.8,331,127.7,331,127.7z M316,145.9c0.2,0,0.3-0.2,0.4-0.3c0-0.1,0-0.3-0.2-0.1
				C316.1,145.5,316,145.7,316,145.9z M318.2,142.6h0.2c0.1-0.1,0.1-0.2,0.1-0.3c0,0,0.1-0.1,0-0.1c0-0.1-0.1,0-0.1,0
				c-0.1,0.1-0.1,0.1-0.1,0.2C318.2,142.6,318.2,142.6,318.2,142.6z M319,141.8c0.1,0.1,0.1,0.1,0.1,0H319z M320.8,139
				c0.4-0.2,0.5-0.6,0.6-0.9C320.9,138.7,320.6,139.1,320.8,139z M324.5,133.9c0-0.1,0.1-0.1,0.1-0.1l0.1-0.2
				c-0.1,0.1-0.1,0.1-0.2,0.2C324.5,133.8,324.5,133.8,324.5,133.9z M325.3,132.8c0.1-0.1,0.1-0.1,0.2-0.2c0-0.1,0-0.1,0.1-0.1
				c-0.1,0-0.1,0.1-0.2,0.1C325.4,132.7,325.4,132.7,325.3,132.8z M326.5,131.2c0.2-0.1,0.3-0.1,0.4-0.2c0,0,0.1-0.1,0.1-0.1
				c0.1-0.1,0.1-0.2,0-0.2c0-0.1-0.1,0.1-0.2,0.1L326.5,131.2z M331.3,125.5c-0.1,0-0.1,0.1-0.2,0.1c-0.2,0.2-0.4,0.5-0.2,0.4
				c0.2-0.1,0.3-0.2,0.4-0.3C331.3,125.5,331.3,125.5,331.3,125.5z M332.3,124.4L332.3,124.4L332.3,124.4L332.3,124.4z M333.6,124.4
				c-0.4,0.3-0.6,0.5-0.8,0.9C333.4,124.8,333.4,124.8,333.6,124.4z M334.8,123.1c0-0.1,0.1-0.1,0.1-0.1
				C334.9,123.1,334.9,123.1,334.8,123.1z M335.5,122.3l-0.3,0.4c-0.1,0.1-0.2,0.2-0.3,0.3c0.1-0.1,0.2-0.3,0.3-0.4
				C335.3,122.5,335.3,122.4,335.5,122.3z"/>
		</g>
	</g>
</g>
<g>
</g>
<g>
</g>
<g>
</g>
<g>
</g>
<g>
</g>
<g>
</g>
<g>
</g>
<g>
</g>
<g>
</g>
<g>
</g>
<g>
</g>
</svg>
