<svg id="Layer_1" data-name="Layer 1" xmlns="http://www.w3.org/2000/svg" viewBox="0 0 471 471"><defs><style>.cls-1{fill:#efe7df;stroke:#efe7df;}.cls-1,.cls-2,.cls-3,.cls-4,.cls-5,.cls-6,.cls-7,.cls-8,.cls-9{stroke-miterlimit:10;}.cls-1,.cls-2,.cls-3,.cls-4,.cls-5{stroke-width:2px;}.cls-2{fill:#824b33;stroke:#5e3425;}.cls-3{fill:none;stroke:#383433;}.cls-4{fill:#3f3e3d;stroke:#191918;}.cls-5{fill:#bf8c19;stroke:#996d16;}.cls-6,.cls-9{fill:#d7dbd8;}.cls-6,.cls-7{stroke:#849b8f;}.cls-6,.cls-7,.cls-8,.cls-9{stroke-width:3px;}.cls-7{fill:#a3b7ad;}.cls-8{fill:#c1d1c8;}.cls-8,.cls-9{stroke:#9eafa5;}</style></defs><title>logo</title><circle class="cls-1" cx="235.5" cy="235.5" r="234.5"/><g id="body"><g id="head"><ellipse id="head-shape" class="cls-2" cx="239.42" cy="189.5" rx="61.55" ry="71.09"/><path id="right-eye" class="cls-3" d="M269.93,185.82s10.33-13.26,20.66,0" transform="translate(-12 -7)"/><path id="left-eye" class="cls-3" d="M214.84,187.29s10.33-13.26,20.66,0" transform="translate(-12 -7)"/><path id="hair-puff" class="cls-4" d="M190.73,188.77S189,177,202.79,166.67s6.88-16.21,6.88-16.21-3.44-3,8.61-7.37,12.05-10.31,15.49-10.31,6.89-5.9,17.22,0c0,0,6.89-5.9,10.33-2.95s10.33,7.37,12.05,7.37-1.72,8.84,8.61,7.36,10.33,4.42,12,8.84-1.72,10.32,3.44,11.79,12,14.74,15.5,14.74,0-16.21,0-20.63-8.61-14.74-5.17-14.74-13.77-4.42-6.89-8.84c0,0,13.78,5.9,17.22-2.94s1.72-2.95,8.61-7.37.17-14,3.44-17.68c5.17-5.9-6.89-17.68-8.61-20.63s8.61-19.16,1.72-22.1c-8.71-3.73-13.77-23.58-22.38-16.21-1.72,1.47-17.21-16.21-22.38-8.84,0,0-12-7.37-18.93-3s-34.43-1.47-25.83,5.89c4.39,3.76-16.72-5.3-22.38,1.48-8.6,10.31-6.88-2.95-17.21,5.89-6.21,5.31-8.61,1.48-17.22,5.9s-3.44,4.42-10.33,11.78,0,28,0,28-6.88,14.73,1.72,20.63-5.16,2.94,3.45,11.79,5.16,1.47,12,2.94,1.72,7.37,8.61,10.32,18.93-7.37,3.44,14.73C193.1,160.35,190.73,188.77,190.73,188.77Z" transform="translate(-12 -7)"/><rect id="neck" class="cls-2" x="213.17" y="252.49" width="53.37" height="39.78"/></g><path id="arms" class="cls-5" d="M237.44,273.45,118.22,374.62c-16.53,14-6.61,41.06,15.08,41.06H371.74c21.68,0,31.61-27,15.07-41.06L267.59,273.45A23.3,23.3,0,0,0,237.44,273.45Z" transform="translate(-12 -7)"/></g><g id="computer"><rect id="large-back" class="cls-6" x="162.59" y="114.88" width="170.73" height="334.97" rx="32.53" transform="translate(518.32 27.41) rotate(90)"/><rect id="medium-back" class="cls-7" x="81.64" y="201.27" width="308.63" height="148.18" rx="20.34"/><rect id="small-back" class="cls-8" x="192.67" y="246.37" width="95.98" height="114.36"/><path id="spinal_support" data-name="spinal support" class="cls-9" d="M243.52,302.57l-15.13,90.16a9,9,0,0,0,8.83,10.44h30.26a9,9,0,0,0,8.83-10.44l-15.13-90.16C259.51,292.61,245.19,292.61,243.52,302.57Z" transform="translate(-12 -7)"/><rect id="base" class="cls-9" x="101.63" y="378.5" width="276.87" height="30.55"/><rect id="base-two" class="cls-8" x="180.5" y="397.78" width="118.56" height="9.66"/></g></svg>